<?xml version="1.0" encoding="UTF-8" standalone="no"?>
<!DOCTYPE svg PUBLIC "-//W3C//DTD SVG 1.1//EN" "http://www.w3.org/Graphics/SVG/1.1/DTD/svg11.dtd">
<svg width="100%" height="100%" viewBox="0 0 166 444" version="1.1" xmlns="http://www.w3.org/2000/svg" xmlns:xlink="http://www.w3.org/1999/xlink" xml:space="preserve" xmlns:serif="http://www.serif.com/" style="fill-rule:evenodd;clip-rule:evenodd;stroke-linejoin:round;stroke-miterlimit:2;">
    <g transform="matrix(1,0,0,1,-1200,-110.969)">
        <g id="Artboard2" transform="matrix(0.144223,0,0,0.800009,1026.93,110.969)">
            <rect x="1200.03" y="0" width="1150.03" height="554.87" style="fill:none;"/>
            <clipPath id="_clip1">
                <rect x="1200.03" y="0" width="1150.03" height="554.87"/>
            </clipPath>
            <g clip-path="url(#_clip1)">
                <g transform="matrix(17.6001,0,0,3.1729,-22971,-2198.65)">
                    <g transform="matrix(1,0,0,1,1388.1,698.386)">
                        <path d="M0,114.158C1.388,113.539 2.083,113.499 2.835,113.184C4.616,112.436 5.479,110.656 5.581,110.437C6.338,108.821 5.521,107.997 4.695,102.819C4.161,99.467 4.432,99.36 3.897,98.036C3.074,95.99 2.128,95.495 2.126,93.783C2.126,93.055 2.296,92.325 2.126,90.949C1.973,89.704 1.722,89.396 1.595,89.265C0.999,88.652 0.191,88.9 -0.975,88.675C-2.449,88.389 -3.538,87.53 -3.897,87.169C-5.393,85.67 -4.474,82.578 -2.835,73.113C-2.835,73.113 -2.231,69.631 -3.101,69.304C-3.344,69.212 -3.535,69.448 -4.045,69.392C-4.3,69.365 -4.64,69.264 -5.492,68.507C-6.25,67.834 -6.628,67.497 -6.939,66.971C-7.254,66.439 -7.636,65.793 -7.56,64.993C-7.476,64.118 -6.895,63.575 -7.176,63.191C-7.323,62.989 -7.56,63.039 -7.766,62.749C-7.954,62.484 -7.946,62.18 -7.943,62.04C-7.921,61.036 -8.024,60.028 -7.943,59.028C-7.914,58.667 -7.945,58.902 -7.943,56.429C-7.939,52.979 -7.938,51.255 -7.854,49.903C-7.813,49.24 -7.66,47.877 -7.353,45.149C-7.036,42.344 -6.908,41.512 -6.703,40.543C-6.608,40.098 -6.555,39.892 -5.817,37.206C-4.868,33.751 -4.708,33.184 -4.43,32.304C-3.358,28.921 -2.848,28.201 -2.126,27.697C-1.808,27.475 -1.294,27.264 -0.266,26.841C1.173,26.25 1.892,25.954 2.835,25.778C3.565,25.642 4.824,25.493 5.641,25.04C5.924,24.883 6.172,24.685 6.172,24.685C6.271,24.606 6.621,24.32 6.969,23.829C7.051,23.714 7.312,23.333 7.56,22.678C7.736,22.21 7.953,21.477 8.003,20.522C7.676,20.564 7.192,20.601 6.614,20.552C5.363,20.443 4.455,19.992 3.78,19.636C1.142,18.247 -0.177,17.553 -1.004,16.624C-1.429,16.147 -2.913,14.481 -3.159,12.165C-3.668,7.391 1.496,3.787 2.48,3.099C5.129,1.252 7.881,0.657 9.804,0.471L10.217,-2.215C10.562,-1.418 10.906,-0.621 11.251,0.177C12.477,0.119 14.225,0.114 16.3,0.383C18.776,0.704 20.646,0.945 22.648,2.155C23.853,2.882 25.876,4.103 26.576,6.554C27.176,8.652 26.436,10.487 26.045,11.457C24.875,14.355 22.597,15.92 20.582,17.304C18.771,18.546 17.062,19.322 15.739,19.813C15.735,20.086 15.738,20.472 15.769,20.935C15.81,21.564 15.837,21.994 15.976,22.53C16.169,23.28 16.469,23.811 16.565,23.976C17.015,24.74 17.547,25.199 17.776,25.394C19.433,26.8 21.774,27.007 23.83,28.317C25.53,29.402 26.409,30.843 27.049,31.89C28.08,33.581 27.874,34.145 28.968,37.59C30.094,41.133 30.9,42.387 31.479,45.68C31.74,47.174 31.77,48.029 31.419,48.929C30.966,50.093 30.091,50.781 28.466,52.058C27.537,52.79 26.867,53.308 25.809,53.742C24.365,54.333 23.114,54.39 22.885,54.391C22.871,54.391 22.301,54.394 22.301,54.394C22.301,54.394 22.237,54.39 22.235,54.391C22.196,54.409 27.872,64.554 35.258,77.72C34.647,77.434 34.037,77.148 33.427,76.863C31.892,74.224 30.355,71.567 28.82,68.89C27.137,65.956 25.474,63.032 23.83,60.12C23.919,60.445 24.058,60.929 24.243,61.509C25.226,64.563 26.347,66.55 26.842,67.532C28.429,70.678 28.722,73.692 29.146,78.045C29.4,80.667 29.36,82.628 29.322,84.512C29.276,86.774 29.207,89.616 28.555,93.193C28.053,95.944 27.869,95.496 27.314,98.567C26.276,104.316 27.269,103.958 26.487,106.392C26.316,106.928 25.827,108.32 26.487,109.138C26.603,109.281 26.629,109.253 27.078,109.582C28.172,110.381 28.208,110.687 29.204,111.412C29.797,111.845 29.831,111.769 30.238,112.121C30.941,112.728 30.911,113.012 31.374,113.37C32.17,113.984 32.798,113.558 33.574,113.981C34.044,114.236 34.615,114.827 34.874,116.373C29.874,116.363 24.873,116.353 19.873,116.344C19.684,115.504 19.559,114.288 20.109,113.125C20.445,112.415 20.896,112.017 21.084,111.826C22.173,110.717 22.354,108.5 20.848,100.044C20.272,96.811 19.848,94.898 19.519,93.517C19.107,91.788 18.718,90.351 18.426,89.324C16.645,89.482 14.863,89.639 13.081,89.797C12.605,91.005 11.986,92.816 11.575,95.083C11.261,96.822 11.338,97.344 11.104,101.255C10.784,106.571 10.625,109.229 10.395,110.497C10.305,110.992 10.012,112.512 10.069,114.543C10.086,115.117 10.126,115.59 10.158,115.9C0.633,115.919 -1.563,115.512 -1.595,115.103C-1.611,114.878 -0.975,114.594 0,114.158" style="fill:rgb(83,109,136);fill-rule:nonzero;"/>
                    </g>
                    <g transform="matrix(-1,0,0,1,2809.67,551.928)">
                        <rect x="1386.31" y="262.184" width="37.044" height="3.704" style="fill:rgb(83,109,136);"/>
                    </g>
                    <g transform="matrix(-1,0,0,1,2811.52,568.597)">
                        <rect x="1380.76" y="249.219" width="50.01" height="12.965" style="fill:rgb(83,109,136);"/>
                    </g>
                    <g transform="matrix(-1,0,0,1,2811.52,618.606)">
                        <rect x="1373.35" y="212.175" width="64.826" height="37.044" style="fill:rgb(83,109,136);"/>
                    </g>
                </g>
            </g>
        </g>
    </g>
</svg>
