<?xml version="1.0" encoding="UTF-8" standalone="no"?>
<!DOCTYPE svg PUBLIC "-//W3C//DTD SVG 1.1//EN" "http://www.w3.org/Graphics/SVG/1.1/DTD/svg11.dtd">
<svg width="100%" height="100%" viewBox="0 0 1151 555" version="1.1" xmlns="http://www.w3.org/2000/svg" xmlns:xlink="http://www.w3.org/1999/xlink" xml:space="preserve" xmlns:serif="http://www.serif.com/" style="fill-rule:evenodd;clip-rule:evenodd;stroke-linejoin:round;stroke-miterlimit:2;">
    <rect id="Artboard1" x="0" y="0" width="1150.03" height="554.87" style="fill:none;"/>
    <clipPath id="_clip1">
        <rect id="Artboard11" serif:id="Artboard1" x="0" y="0" width="1150.03" height="554.87"/>
    </clipPath>
    <g clip-path="url(#_clip1)">
        <g transform="matrix(2.47461,0,0,2.47461,-2895.14,-1606.36)">
            <g transform="matrix(-0.120139,-0.992757,-0.992757,0.120139,1226.54,686.288)">
                <path d="M-39.859,-44.973C-36.894,-21.301 -33.931,2.372 -30.966,26.044C-33.931,29.138 -36.895,32.232 -39.859,35.326C-43.093,9.425 -46.327,-16.475 -49.56,-42.377C-46.327,-43.243 -43.092,-44.107 -39.859,-44.973" style="fill:rgb(128,158,173);fill-rule:nonzero;"/>
            </g>
            <g transform="matrix(-0.316601,-0.948559,-0.948559,0.316601,1267.69,625.77)">
                <path d="M-205.808,-293.605C-161.637,-160.953 -117.464,-28.301 -73.293,104.351C-117.465,124.705 -161.636,145.059 -205.808,165.412C-253.665,22.032 -301.523,-121.349 -349.38,-264.73C-301.523,-274.354 -253.666,-283.979 -205.808,-293.605" style="fill:rgb(242,242,242);fill-rule:nonzero;"/>
            </g>
            <g transform="matrix(1,0,0,1,1242.52,822.755)">
                <path d="M0,-64.511C53.184,-81.209 106.366,-97.907 159.549,-114.606C212.296,-97.772 265.042,-80.938 317.789,-64.103C321.119,-26.07 324.45,11.964 327.78,49.997C215.011,50.029 102.24,50.062 -10.529,50.095L0,-64.511Z" style="fill:rgb(177,192,201);fill-rule:nonzero;"/>
            </g>
            <g transform="matrix(1,0,0,1,1401.85,793.01)">
                <path d="M0,-50.011C52.131,-36.95 104.262,-23.89 156.394,-10.829C156.683,-7.219 156.973,-3.61 157.262,0C104.769,-11.616 52.275,-23.234 -0.218,-34.85C-53.652,-23.299 -107.087,-11.748 -160.521,-0.197L-159.218,-12.405C-106.146,-24.94 -53.073,-37.475 0,-50.011" style="fill:rgb(128,158,173);fill-rule:nonzero;"/>
            </g>
            <g transform="matrix(1,0,0,1,1561.28,718.263)">
                <path d="M0,42.048C-53.072,24.661 -106.144,7.274 -159.216,-10.113C-212.804,7.123 -266.393,24.36 -319.98,41.596C-320.182,44.876 -320.382,48.155 -320.583,51.436C-266.758,37.598 -212.933,23.759 -159.107,9.921L0.874,52.161C0.583,48.79 0.291,45.419 0,42.048" style="fill:rgb(128,158,173);fill-rule:nonzero;"/>
            </g>
            <g transform="matrix(1,0,0,1,1226.56,695.926)">
                <path d="M0,55.736C4.915,58.468 9.829,61.2 14.744,63.932C68.296,47.188 121.848,30.444 175.4,13.7C228.509,30.594 281.616,47.49 334.725,64.384C340.191,62.06 345.659,59.735 351.126,57.41C292.623,35.39 234.12,13.372 175.617,-8.648C117.078,12.814 58.539,34.275 0,55.736" style="fill:rgb(230,230,230);fill-rule:nonzero;"/>
            </g>
            <g transform="matrix(1,0,0,1,1226.23,681.077)">
                <path d="M0,57.295C58.647,33.274 117.295,9.253 175.942,-14.768C234.156,9.154 292.369,33.077 350.582,57C351.017,62.021 351.451,67.041 351.886,72.063C293.238,50.01 234.59,27.958 175.942,5.906C117.187,27.466 58.43,49.025 -0.326,70.585C-0.218,66.155 -0.108,61.726 0,57.295" style="fill:rgb(128,158,173);fill-rule:nonzero;"/>
            </g>
            <g transform="matrix(1,0,0,1,1402.5,816.44)">
                <path d="M0,-37.606C-53.651,-29.008 -107.304,-20.411 -160.955,-11.813C-161.317,-8.335 -161.68,-4.856 -162.041,-1.377C-108.173,-8.925 -54.304,-16.473 -0.435,-24.021C52.565,-16.013 105.565,-8.006 158.565,0C158.204,-3.675 157.842,-7.35 157.479,-11.026C104.986,-19.886 52.493,-28.746 0,-37.606" style="fill:rgb(128,158,173);fill-rule:nonzero;"/>
            </g>
            <g transform="matrix(1,0,0,1,1531.53,828.399)">
                <path d="M0,0.052C-42.936,-4.083 -85.871,-8.218 -128.808,-12.352C-172.395,-8.152 -215.982,-3.952 -259.569,0.248C-259.859,3.859 -260.149,7.468 -260.438,11.077C-216.489,8.583 -172.54,6.09 -128.59,3.596C-85.496,6.531 -42.401,9.467 0.693,12.404C0.462,8.286 0.231,4.169 0,0.052" style="fill:rgb(128,158,173);fill-rule:nonzero;"/>
            </g>
            <g transform="matrix(1,0,0,1,1269.16,859.135)">
                <path d="M0,7.679C42.824,9.765 87.917,10.935 135.083,10.86C180.363,10.787 223.719,9.575 264.977,7.513C264.76,4.231 264.543,0.95 264.325,-2.332C221.786,-2.979 178.479,-3.256 134.432,-3.12C89.022,-2.979 44.402,-2.406 0.602,-1.444C0.401,1.597 0.2,4.638 0,7.679" style="fill:rgb(128,158,173);fill-rule:nonzero;"/>
            </g>
            <g transform="matrix(1,0,0,1,1370.57,871.982)">
                <path d="M0,-165.408C1.158,-165.868 2.317,-166.327 3.476,-166.787C5.647,-166.262 7.82,-165.736 9.992,-165.212C9.92,-109.681 9.848,-54.151 9.774,1.379L-0.651,1.379C-0.435,-54.217 -0.217,-109.812 0,-165.408" style="fill:white;fill-rule:nonzero;"/>
            </g>
            <g transform="matrix(0,1,1,0,1460.99,786.297)">
                <path d="M-80.855,-86.835L86.702,-86.835C86.747,-84.842 86.79,-82.85 86.835,-80.856C31.496,-80.876 -23.842,-80.896 -79.181,-80.916C-79.739,-82.889 -80.297,-84.861 -80.855,-86.835" style="fill:rgb(204,204,204);fill-rule:nonzero;"/>
            </g>
            <g transform="matrix(1,0,0,1,1422.7,871.195)">
                <path d="M0,-163.834C2.027,-164.556 4.055,-165.277 6.082,-166C7.385,-165.54 8.688,-165.081 9.991,-164.621C11.149,-109.025 12.309,-53.43 13.467,2.166L3.475,2.166C2.316,-53.167 1.158,-108.5 0,-163.834" style="fill:white;fill-rule:nonzero;"/>
            </g>
            <g transform="matrix(-0.999903,-0.0139402,-0.0139402,0.999903,1426.1,873.078)">
                <path d="M-0.35,-167.559C1.503,-166.828 3.357,-166.097 5.21,-165.365C3.356,-110.238 1.503,-55.113 -0.35,0.014C-2.486,-0.05 -4.622,-0.113 -6.756,-0.174L-0.35,-167.559Z" style="fill:rgb(204,204,204);fill-rule:nonzero;"/>
            </g>
            <g transform="matrix(1,0,0,1,1478.09,871.196)">
                <path d="M0,-144.932C2.027,-145.655 4.055,-146.376 6.082,-147.098C7.241,-146.704 8.399,-146.311 9.558,-145.917C12.31,-96.556 15.061,-47.195 17.812,2.166L7.603,2.166C5.068,-46.867 2.534,-95.9 0,-144.932" style="fill:white;fill-rule:nonzero;"/>
            </g>
            <g transform="matrix(-0.999918,0.0128015,0.0128015,0.999918,1488.38,872.971)">
                <path d="M2.361,-148.423C-0.028,-98.919 -2.418,-49.416 -4.806,0.089L2.361,-0.003C4.287,-48.894 6.214,-97.784 8.141,-146.676C6.214,-147.258 4.288,-147.842 2.361,-148.423" style="fill:rgb(204,204,204);fill-rule:nonzero;"/>
            </g>
            <g transform="matrix(1,0,0,1,1501.77,871.59)">
                <path d="M0,-138.436C2.027,-139.027 4.055,-139.617 6.082,-140.207C6.95,-139.879 7.819,-139.551 8.688,-139.223C11.439,-92.225 14.191,-45.227 16.942,1.771L8.254,1.771C5.503,-44.964 2.751,-91.7 0,-138.436" style="fill:white;fill-rule:nonzero;"/>
            </g>
            <g transform="matrix(-0.99985,0.0173085,0.0173085,0.99985,1511.41,872.918)">
                <path d="M1.112,-141.182C3.04,-140.674 4.968,-140.165 6.896,-139.658C4.968,-93.117 3.04,-46.578 1.112,-0.037C-0.77,0.012 -2.652,0.061 -4.534,0.109C-2.652,-46.987 -0.77,-94.084 1.112,-141.182" style="fill:rgb(204,204,204);fill-rule:nonzero;"/>
            </g>
            <g transform="matrix(1,0,0,1,1521.32,872.18)">
                <path d="M0,-131.938C2.1,-132.332 4.199,-132.725 6.3,-133.119C7.168,-132.725 8.037,-132.332 8.906,-131.938L18.463,1.181L10.209,1.181C6.807,-43.192 3.403,-87.565 0,-131.938" style="fill:white;fill-rule:nonzero;"/>
            </g>
            <g transform="matrix(-0.999473,0.0324715,0.0324715,0.999473,1533.7,872.947)">
                <path d="M1.792,-133.768C3.776,-133.438 5.761,-133.11 7.746,-132.779C5.761,-88.506 3.777,-44.231 1.792,0.041C-0.053,0.085 -1.899,0.129 -3.745,0.172C-1.9,-44.474 -0.054,-89.122 1.792,-133.768" style="fill:rgb(204,204,204);fill-rule:nonzero;"/>
            </g>
            <g transform="matrix(1,0,0,1,1538.91,871.983)">
                <path d="M0,-125.243C2.462,-125.703 4.923,-126.162 7.385,-126.621C8.109,-126.359 8.833,-126.097 9.558,-125.834C13.105,-83.43 16.652,-41.025 20.2,1.378L11.729,1.378C7.819,-40.829 3.909,-83.036 0,-125.243" style="fill:white;fill-rule:nonzero;"/>
            </g>
            <g transform="matrix(-0.999328,0.0366629,0.0366629,0.999328,1551.62,872.851)">
                <path d="M0.652,-127.303C3.018,-126.979 5.384,-126.656 7.752,-126.333C5.384,-84.196 3.017,-42.061 0.652,0.074L-4.721,0.271C-2.93,-42.253 -1.14,-84.778 0.652,-127.303" style="fill:rgb(204,204,204);fill-rule:nonzero;"/>
            </g>
            <g transform="matrix(1,0,0,1,1552.81,871.787)">
                <path d="M0,-121.109C1.883,-121.633 3.765,-122.159 5.647,-122.684C6.299,-122.29 6.951,-121.896 7.603,-121.503C11.15,-80.477 14.698,-39.451 18.246,1.575L10.209,1.575C6.806,-39.32 3.403,-80.214 0,-121.109" style="fill:white;fill-rule:nonzero;"/>
            </g>
            <g transform="matrix(-0.999216,0.0395793,0.0395793,0.999216,1565.46,872.809)">
                <path d="M2.116,-123.493C3.888,-123.121 5.66,-122.747 7.433,-122.374C5.661,-81.58 3.888,-40.787 2.116,0.006C0.472,0.088 -1.174,0.17 -2.819,0.25L2.116,-123.493Z" style="fill:rgb(204,204,204);fill-rule:nonzero;"/>
            </g>
            <g transform="matrix(1,0,0,1,1315.62,871.787)">
                <path d="M0,-145.523C1.014,-146.048 2.027,-146.574 3.041,-147.098C5.141,-146.442 7.24,-145.786 9.341,-145.129C7.675,-96.228 6.01,-47.327 4.345,1.575L-7.385,1.575C-4.923,-47.458 -2.462,-96.491 0,-145.523" style="fill:white;fill-rule:nonzero;"/>
            </g>
            <g transform="matrix(-0.999976,0.00697676,0.00697676,0.999976,1319.06,872.997)">
                <path d="M-0.625,-148.013C-2.576,-147.392 -4.527,-146.772 -6.477,-146.151C-4.527,-97.464 -2.576,-48.779 -0.625,-0.093C1.71,-0.077 4.045,-0.061 6.381,-0.043C4.045,-49.366 1.71,-98.69 -0.625,-148.013" style="fill:rgb(204,204,204);fill-rule:nonzero;"/>
            </g>
            <g transform="matrix(1,0,0,1,1295.42,733.962)">
                <path d="M0,138.593C2.461,92.586 4.923,46.578 7.385,0.572C4.995,0.112 2.606,-0.347 0.217,-0.807C-0.58,-0.414 -1.376,-0.019 -2.173,0.374L-11.296,139.4C-7.53,139.131 -3.766,138.863 0,138.593" style="fill:white;fill-rule:nonzero;"/>
            </g>
            <g transform="matrix(-0.999992,-0.00391044,-0.00391044,0.999992,1294.82,872.751)">
                <path d="M-0.216,-139.302C-2.462,-138.869 -4.708,-138.434 -6.955,-138C-4.709,-92.148 -2.462,-46.294 -0.216,-0.443C2.011,-0.287 4.235,-0.13 6.462,0.027C4.235,-46.417 2.01,-92.859 -0.216,-139.302" style="fill:rgb(204,204,204);fill-rule:nonzero;"/>
            </g>
            <g transform="matrix(1,0,0,1,1275,739.061)">
                <path d="M0,134.3C2.824,89.927 5.648,45.554 8.472,1.181C6.517,0.787 4.562,0.394 2.607,0L-0.434,1.181C-3.547,45.554 -6.661,89.927 -9.774,134.3L0,134.3Z" style="fill:white;fill-rule:nonzero;"/>
            </g>
            <g transform="matrix(-0.999777,-0.0211264,-0.0211264,0.999777,1272.88,872.949)">
                <path d="M-1.846,-133.662C-3.701,-133.291 -5.554,-132.92 -7.41,-132.549C-5.555,-88.362 -3.701,-44.176 -1.846,0.01C0.144,0.035 2.136,0.06 4.127,0.087C2.136,-44.495 0.146,-89.078 -1.846,-133.662" style="fill:rgb(204,204,204);fill-rule:nonzero;"/>
            </g>
            <g transform="matrix(1,0,0,1,1254.36,745.756)">
                <path d="M0,127.605L9.123,0.984C7.458,0.656 5.792,0.328 4.127,0C3.186,0.328 2.244,0.656 1.304,0.984L-10.86,127.605L0,127.605Z" style="fill:white;fill-rule:nonzero;"/>
            </g>
            <g transform="matrix(-0.999401,-0.0346103,-0.0346103,0.999401,1249.72,872.846)">
                <path d="M-4.37,-127.072C-5.901,-126.812 -7.431,-126.554 -8.962,-126.294C-7.431,-84.197 -5.9,-42.098 -4.37,0L2.36,0.234C0.116,-42.202 -2.127,-84.637 -4.37,-127.072" style="fill:rgb(204,204,204);fill-rule:nonzero;"/>
            </g>
            <g transform="matrix(1,0,0,1,1239.38,748.315)">
                <path d="M0,125.046L12.381,1.182C10.57,0.787 8.761,0.394 6.95,0C5.72,0.459 4.488,0.919 3.258,1.378L-8.689,125.046L0,125.046Z" style="fill:white;fill-rule:nonzero;"/>
            </g>
            <g transform="matrix(-0.998338,-0.0576221,-0.0576221,0.998338,1235.48,872.541)">
                <path d="M-3.584,-124.293C-5.266,-124.045 -6.949,-123.798 -8.631,-123.55C-6.949,-82.331 -5.267,-41.114 -3.584,0.103L1.404,0.391C-0.259,-41.171 -1.921,-82.732 -3.584,-124.293" style="fill:rgb(204,204,204);fill-rule:nonzero;"/>
            </g>
            <g transform="matrix(-0.985019,0.172448,0.172448,0.985019,1353.92,869.74)">
                <path d="M5.401,-72.846C10.75,-48.591 16.1,-24.334 21.448,-0.079L5.401,2.73C0.361,-22.279 -4.679,-47.288 -9.718,-72.298C-4.678,-72.481 0.362,-72.663 5.401,-72.846" style="fill:white;fill-rule:nonzero;"/>
            </g>
            <g transform="matrix(0.973923,-0.226881,-0.226881,-0.973923,1478.32,869.251)">
                <path d="M-8.498,-1.008C-4.186,22.54 0.126,46.086 4.438,69.634C0.127,71.458 -4.185,73.283 -8.498,75.107C-13.56,50.505 -18.622,25.901 -23.684,1.297C-18.623,0.528 -13.56,-0.24 -8.498,-1.008" style="fill:white;fill-rule:nonzero;"/>
            </g>
            <g transform="matrix(-0.998605,0.0528102,0.0528102,0.998605,1412.57,872.401)">
                <path d="M4.686,-176.165C7.145,-117.336 9.603,-58.505 12.062,0.324L4.686,0.714C2.724,-58.339 0.761,-117.393 -1.202,-176.445C0.761,-176.352 2.723,-176.258 4.686,-176.165" style="fill:white;fill-rule:nonzero;"/>
            </g>
        </g>
    </g>
</svg>
