<?xml version="1.0" encoding="UTF-8" standalone="no"?>
<!DOCTYPE svg PUBLIC "-//W3C//DTD SVG 1.1//EN" "http://www.w3.org/Graphics/SVG/1.1/DTD/svg11.dtd">
<svg width="100%" height="100%" viewBox="0 0 1980 500" version="1.1" xmlns="http://www.w3.org/2000/svg" xmlns:xlink="http://www.w3.org/1999/xlink" xml:space="preserve" xmlns:serif="http://www.serif.com/" style="fill-rule:evenodd;clip-rule:evenodd;stroke-linejoin:round;stroke-miterlimit:2;">
    <g id="Layer-1" serif:id="Layer 1">
        <g transform="matrix(1,0,0,1,1186,128.157)">
            <path d="M0,345.904L-8.297,345.904C-9.355,343.731 -10.461,341.793 -11.53,340.105C-12.635,340.519 -13.738,340.933 -14.843,341.347C-14.854,340.906 -14.928,340.229 -15.257,339.484C-15.448,339.05 -15.677,338.707 -15.878,338.449C-15.464,334.447 -15.05,330.444 -14.636,326.442C-14.152,326.304 -13.67,326.166 -13.187,326.028C-12.73,326.055 -12.089,326.074 -11.323,326.028C-10.979,326.007 -9.176,325.885 -7.183,325.2C-4.078,324.132 -1.805,322.14 0,321.03L0,345.904ZM-30.99,341.554C-31.025,342.098 -31.139,343.69 -31.197,345.902L-31.197,345.904L-34.156,345.904L-34.303,319.61C-34.029,319.874 -33.753,320.15 -33.475,320.438C-32.867,321.069 -32.316,321.694 -31.818,322.301C-30.774,332.268 -30.762,338.045 -30.99,341.554M-34.924,166.205C-35,166.065 -35.076,165.926 -35.152,165.787C-34.88,165.565 -34.633,165.322 -34.412,165.054C-34.583,165.438 -34.754,165.821 -34.924,166.205M-42.17,165.791C-42.185,165.773 -42.199,165.755 -42.213,165.736C-42.196,165.751 -42.179,165.762 -42.162,165.776C-42.164,165.781 -42.167,165.786 -42.17,165.791M-42.17,345.904L-46.441,345.904C-46.443,342.59 -46.401,339.207 -46.311,335.758C-46.185,330.999 -45.973,326.373 -45.689,321.887C-45.137,321.473 -44.585,321.059 -44.033,320.645C-43.412,321.097 -42.791,321.549 -42.17,322.001L-42.17,345.904ZM-51.058,180.067C-50.826,179.74 -50.605,179.408 -50.451,179.041C-50.205,178.456 -49.024,177.707 -47.019,177.117C-48.209,177.707 -49.878,178.595 -51.058,180.067M-340.22,345.904L-371.903,345.904L-371.903,344.862L-365.914,344.862L-365.914,321.409C-365.479,321.232 -365.03,321.016 -364.584,320.737C-363.997,320.37 -362.893,319.678 -362.31,318.46C-361.824,317.445 -361.916,316.513 -361.995,315.705C-362.1,314.634 -362.403,314.134 -362.345,312.865C-362.298,311.838 -362.073,311.584 -361.925,311.459C-361.066,310.736 -359.158,311.294 -358.985,311.346C-358.481,310.596 -357.779,309.302 -357.725,307.635C-357.719,307.443 -357.707,306.788 -357.935,305.78C-358.177,304.716 -358.742,303.013 -360.245,301.056C-360.104,301.807 -359.958,302.897 -359.989,304.234C-360,304.683 -360.026,305.006 -360.035,305.105C-360.098,305.833 -360.228,307.325 -360.875,308.647C-361.217,309.347 -361.803,309.958 -362.975,311.177C-363.794,312.032 -364.78,313.05 -366.334,314.215C-367.162,314.835 -368.273,315.577 -369.651,316.323L-407.49,316.323L-407.49,304.945C-406.746,304.745 -405.886,304.425 -405.04,303.896C-404.453,303.529 -403.348,302.837 -402.765,301.619C-402.279,300.604 -402.371,299.672 -402.45,298.863C-402.555,297.793 -402.858,297.294 -402.8,296.024C-402.753,294.997 -402.528,294.743 -402.38,294.618C-401.521,293.895 -399.614,294.453 -399.44,294.506C-398.937,293.756 -398.235,292.461 -398.181,290.795C-398.174,290.602 -398.162,289.947 -398.391,288.939C-398.632,287.875 -399.198,286.172 -400.7,284.216C-400.559,284.966 -400.414,286.056 -400.445,287.393C-400.455,287.841 -400.482,288.164 -400.49,288.264C-400.554,288.992 -400.683,290.484 -401.331,291.806C-401.673,292.507 -402.259,293.116 -403.43,294.337C-404.25,295.191 -405.236,296.209 -406.79,297.374C-407.355,297.798 -408.061,298.28 -408.881,298.779L-423.074,298.779C-419.637,244.521 -416.2,190.262 -412.764,136.005L-346.426,136.005C-342.886,200.05 -339.347,264.097 -335.807,328.143C-337.277,334.063 -338.749,339.984 -340.22,345.904M-864.552,289.644C-864.76,291.436 -865.099,292.939 -865.777,295.943C-866.897,300.911 -867.153,300.419 -868.051,304.516C-868.927,308.516 -868.846,309.726 -870.151,311.34C-871.514,313.025 -873.245,313.734 -873.825,313.965C-875.855,314.769 -877.573,314.613 -880.474,314.314C-884.488,313.901 -884.298,313.183 -887.472,313.09C-889.765,313.022 -890.937,313.365 -891.671,312.564C-892.51,311.651 -892.151,309.933 -891.671,308.541C-891.245,308.296 -890.589,307.955 -889.747,307.666C-887.752,306.98 -886.936,307.344 -884.673,306.966C-882.314,306.571 -880.618,305.744 -879.949,305.391C-879.589,305.202 -878.152,304.444 -877.149,303.466C-874.796,301.174 -874.784,297.622 -874.7,295.593C-874.507,290.975 -872.794,286.536 -872.25,281.946C-871.639,276.788 -870.643,269.285 -868.926,258.851C-869.005,262.081 -868.344,264.439 -867.701,266.024C-866.732,268.414 -865.787,269.088 -865.077,271.449C-864.524,273.284 -864.712,274.151 -864.727,277.922C-864.755,285.208 -864.066,285.464 -864.552,289.644M-52.314,183.388C-52.403,183.245 -52.497,183.111 -52.595,182.984C-52.567,182.913 -52.546,182.843 -52.505,182.767C-52.454,182.67 -52.354,182.489 -52.228,182.345C-52.316,182.702 -52.339,183.017 -52.314,183.388M-25.082,189.216C-25.039,189.182 -24.997,189.157 -24.954,189.127C-24.97,189.675 -25.045,190.235 -25.155,190.991C-25.125,190.043 -25.135,189.692 -25.082,189.216M-24.95,188.84C-24.949,188.888 -24.95,188.938 -24.951,188.987C-24.982,188.995 -25.011,188.999 -25.041,189.005C-25.006,188.951 -24.98,188.895 -24.95,188.84M-24.396,183.261C-24.396,183.262 -24.396,183.263 -24.397,183.264C-24.398,183.257 -24.399,183.249 -24.4,183.24C-24.398,183.248 -24.396,183.255 -24.396,183.261M854.277,345.904L800,345.904L800,275.465L776.889,275.465L776.889,345.904L772.575,345.904L772.575,309.49L748.936,309.49L748.936,345.904L710.843,345.904L710.843,268.088L682.474,268.088L682.474,345.904L676.481,345.904L676.481,245.019C676.481,237.429 670.589,231.24 663.161,230.789L662.297,194.757L661.434,230.789C654.003,231.24 648.112,237.429 648.112,245.019L648.112,345.904L611.189,345.904L611.189,279.306L582.82,279.306L582.82,345.904L565.399,345.904L565.399,288.541L536.488,288.541L536.488,223.519L530.212,223.519L530.212,183.646L530.251,183.646L530.251,180.093L530.212,180.093L530.212,164.381L530.251,164.381L530.251,160.828L530.212,160.828L530.212,157.945L530.291,157.945L530.291,154.392L530.212,154.392L530.212,153.642L525.475,144.168L525.475,105.439L525.119,105.439L525.119,96.813L525.475,96.813L525.475,57.354L525.119,57.354L525.119,36.39L519.907,36.39L519.907,19.928L517.657,19.928L517.657,6.663L517.568,6.663L517.568,6.604L501.876,6.604L501.876,-19.196L500.632,-19.196L500.632,-34L498.353,-34L498.353,-19.196L496.99,-19.196L496.99,6.604L481.268,6.604L481.268,13.769L481.416,13.769L481.416,19.809L479.166,19.809L479.166,36.154L473.954,36.154L473.954,57.354L473.678,57.354L473.678,96.813L473.954,96.813L473.954,105.439L473.718,105.439L473.718,144.269L468.743,153.88L468.743,154.353L468.388,154.353L468.388,157.906L468.743,157.906L468.743,160.788L468.428,160.788L468.428,164.342L468.743,164.342L468.743,167.223L468.506,167.223L468.506,170.776L468.743,170.776L468.743,173.579L468.486,173.579L468.486,177.133L468.743,177.133L468.743,180.053L468.428,180.053L468.428,183.607L468.743,183.607L468.743,186.429L468.506,186.429L468.506,189.982L468.743,189.982L468.743,192.865L468.546,192.865L468.546,196.418L468.743,196.418L468.743,199.3L468.625,199.3L468.625,202.852L468.743,202.852L468.743,205.656L468.605,205.656L468.605,209.209L468.743,209.209L468.743,212.131L468.546,212.131L468.546,215.683L468.743,215.683L468.743,218.407L468.546,218.407L468.546,221.961L468.743,221.961L468.743,223.994L464.479,223.994L464.479,224.802L462.584,224.802L462.584,228.356L464.479,228.356L464.479,231.277L462.723,231.277L462.723,234.831L464.479,234.831L464.479,237.554L462.684,237.554L462.684,241.107L464.479,241.107L464.479,244.068L462.684,244.068L462.684,247.622L464.479,247.622L464.479,250.345L462.762,250.345L462.762,253.898L464.479,253.898L464.479,256.623L462.723,256.623L462.723,260.175L464.479,260.175L464.479,263.136L462.723,263.136L462.723,266.689L464.479,266.689L464.479,269.729L462.742,269.729L462.742,269.948L458.152,269.948L448.147,252.51L438.144,269.948L436.122,269.948L436.122,253.519L427.277,253.519L427.277,238.882L426.857,238.882L426.857,212.25L427.277,212.25L427.277,204.072L426.857,204.072L426.857,197.361L427.277,197.361L427.277,72.062L403.204,72.062L403.204,79.722L372.757,79.722L372.757,306.264L367.109,306.264L367.109,294.25L343.812,294.25L343.812,314.177L333.33,314.177L333.33,215.129L325.792,215.129C323.439,209.115 317.844,204.759 311.166,204.237L310.047,157.527L308.928,204.215C302.055,204.573 296.263,208.984 293.859,215.129L287.903,215.129L287.903,345.904L282.372,345.904L282.372,278.719L255.289,278.719L255.289,345.904L246.555,345.904L246.555,278.719L227.431,278.719L208.665,246.01L189.899,278.719L171.425,278.719L171.425,345.904L167.059,345.904L167.059,328.48L137.355,328.48L137.355,345.904L130.949,345.904L130.949,339.379L116.098,339.379L116.098,345.904L102.702,345.904L102.702,310.603L80.281,310.603L80.281,345.904L78.824,345.904L78.824,334.632L63.973,334.632L63.973,328.478L49.124,328.478L49.124,345.904L44.755,345.904L44.755,302.164L23.789,302.164L23.789,278.719L8.66,278.719L7.449,228.12L6.235,278.719L0,278.719L0,300.507C-0.469,300.564 -0.937,300.643 -1.386,300.771C-3.752,301.442 -5.327,303.166 -6.354,304.291C-7.505,305.549 -7.959,306.508 -9.667,308.016C-10.412,308.675 -11.078,309.158 -11.53,309.466C-11.323,308.362 -11.116,307.258 -10.909,306.154C-10.188,305.331 -9.197,304.022 -8.425,302.22C-7.364,299.745 -7.267,297.618 -7.183,295.802C-7.117,294.379 -7.148,292.378 -7.597,290.006C-8.494,290.35 -9.391,290.696 -10.288,291.041C-10.055,291.518 -10.086,291.939 -10.288,292.076C-10.404,292.154 -10.576,292.139 -10.702,292.076C-11.13,291.859 -11.113,291.024 -11.116,290.834C-11.131,289.769 -12.061,283.544 -13.601,273.858C-13.538,273.764 -13.477,273.672 -13.414,273.579C-13.338,273.602 -13.253,273.634 -13.187,273.651C-13.203,273.546 -13.229,273.433 -13.247,273.328C-13.227,273.298 -13.207,273.267 -13.187,273.237C-13.293,272.834 -13.394,272.409 -13.497,271.995C-13.601,271.442 -13.688,270.905 -13.808,270.339C-13.915,269.827 -14.035,269.347 -14.15,268.851C-13.739,268.647 -13.135,268.283 -12.565,267.647C-12.224,267.265 -11.977,266.875 -11.795,266.516C-11.672,266.383 -11.583,266.266 -11.53,266.198C-10.183,264.436 -11.266,261.976 -11.323,261.85C-11.354,261.908 -11.457,262.096 -11.624,262.317C-11.666,262.215 -11.706,262.124 -11.737,262.057C-12.207,262.468 -12.678,262.88 -13.147,263.291C-13.161,263.293 -13.173,263.299 -13.187,263.3C-13.88,263.361 -14.422,262.992 -14.839,262.647C-15.115,262.243 -15.215,261.814 -15.257,261.643C-15.436,260.904 -15.945,259.674 -17.319,257.531C-17.322,257.52 -17.324,257.512 -17.327,257.503C-17.436,257.052 -17.526,256.642 -17.604,256.268C-17.562,256.015 -17.534,255.738 -17.534,255.432C-17.533,254.546 -17.76,253.826 -17.978,253.324C-17.132,253.44 -16.172,253.531 -15.05,253.569C-14.084,253.602 -13.174,253.628 -12.271,253.591C-9.819,253.638 -7.902,253.55 -6.147,252.327C-5.492,251.87 -4.99,251.343 -4.597,250.825C-4.346,250.593 -4.1,250.342 -3.87,250.05C-2.022,247.692 -1.486,243.782 -3.264,241.402C-3.288,241.326 -3.313,241.251 -3.336,241.179C-3.647,239.794 -3.963,238.404 -4.284,237.008C-4.829,234.642 -5.382,232.296 -5.94,229.968C-5.887,229.948 -5.825,229.922 -5.764,229.895C-5.322,229.791 -4.77,229.581 -4.284,229.14C-4.195,229.059 -4.114,228.976 -4.04,228.889C-3.74,228.58 -3.517,228.243 -3.342,227.916C-1.877,225.754 -2.53,223.269 -2.628,222.929C-2.68,222.986 -2.753,223.059 -2.835,223.136L-2.844,223.145C-2.928,223.223 -3.031,223.306 -3.146,223.392C-3.668,223.643 -4.319,223.893 -5.083,224.089C-5.573,224.119 -6.208,224.075 -6.769,223.758C-7.256,223.482 -7.594,223.05 -7.832,222.583C-8.324,219.927 -9.135,216.872 -10.495,213.613C-10.742,213.022 -10.996,212.455 -11.255,211.904C-9.607,210.726 -9.437,208.396 -9.443,207.421C-9.403,207.218 -9.374,207.033 -9.356,206.885C-11.191,207.685 -12.787,207.996 -13.911,208.128C-15.461,208.308 -16.693,208.215 -17.845,208.128C-19.806,207.978 -20.338,207.732 -22.398,207.507C-23.779,207.354 -25.094,207.295 -26.332,207.3C-26.467,207.353 -26.612,207.41 -26.758,207.466C-27.548,207.144 -28.516,206.565 -28.92,205.54C-28.999,205.34 -29.042,204.578 -29.127,203.055C-29.147,202.694 -29.164,202.313 -28.92,202.02C-28.858,201.945 -28.787,201.893 -28.715,201.849C-28.559,201.806 -28.402,201.757 -28.236,201.686C-28.117,201.664 -27.999,201.641 -27.885,201.606C-27.693,201.548 -27.127,201.325 -26.48,199.923C-26.335,199.639 -26.186,199.302 -26.031,198.897C-26.027,198.903 -26.026,198.909 -26.021,198.915C-25.779,199.211 -25.361,199.363 -24.986,199.329C-24.646,199.299 -24.375,199.118 -24.158,198.915C-22.582,197.435 -21.467,193.532 -21.467,193.532C-20.892,191.517 -20.918,191.242 -20.433,189.805C-19.979,188.464 -19.514,187.396 -19.19,186.7L-20.019,186.7C-19.531,186.415 -19.196,186.101 -18.983,185.872C-18.641,185.505 -18.402,185.239 -18.362,184.837C-18.326,184.471 -18.472,184.171 -18.569,184.009C-18.363,183.879 -18.066,183.675 -17.741,183.388C-16.622,182.401 -16.127,181.279 -15.878,180.697C-15.656,180.18 -15.387,179.408 -15.257,178.42C-16.572,179.891 -17.844,180.563 -18.776,180.904C-20.254,181.443 -21.212,181.209 -22.916,182.146C-23.594,182.518 -24.028,182.874 -24.31,183.167C-24.253,182.874 -24.218,182.35 -24.572,181.939C-24.582,181.927 -24.598,181.918 -24.608,181.906C-24.63,181.818 -24.651,181.727 -24.672,181.658C-24.639,181.682 -24.605,181.707 -24.572,181.732C-24.576,181.477 -24.549,181.096 -24.365,180.697C-24.137,180.195 -23.826,180.02 -23.537,179.662C-23.058,179.065 -22.982,178.389 -22.916,177.799C-22.759,176.383 -23.348,175.253 -23.537,174.9C-25.001,172.18 -27.858,172.55 -29.748,169.517C-30.064,169.009 -30.26,168.558 -30.369,168.275C-30.508,168.482 -30.646,168.689 -30.783,168.896C-30.922,167.999 -31.06,167.102 -31.197,166.205C-31.404,166.55 -31.611,166.895 -31.818,167.24C-32.025,166.55 -32.232,165.86 -32.439,165.17C-32.646,165.514 -32.854,165.86 -33.061,166.205C-33.378,165.634 -33.695,165.063 -34.012,164.493C-33.551,163.745 -33.268,162.887 -33.268,161.961C-33.268,161.559 -33.329,161.174 -33.423,160.8C-33.265,160.686 -33.113,160.066 -33.061,159.787C-32.911,159 -32.863,157.391 -33.889,156.06C-34.748,154.946 -35.792,154.765 -35.752,153.99C-35.732,153.597 -35.438,153.118 -35.338,152.955C-35.026,152.447 -34.84,152.452 -34.717,152.128C-34.459,151.443 -35.001,150.659 -35.131,150.471C-35.611,149.776 -36.305,149.52 -36.58,149.436C-36.512,148.82 -36.541,148.324 -36.58,147.987C-36.75,146.524 -37.346,145.965 -37.408,144.467C-37.428,144.006 -37.39,143.613 -37.201,143.225C-36.977,142.762 -36.774,142.793 -36.58,142.397C-36.252,141.729 -36.453,140.882 -36.787,140.327C-37.042,139.904 -37.377,139.645 -37.615,139.499L-37.615,138.464C-37.492,138.439 -37.329,138.386 -37.201,138.257C-36.644,137.689 -37.357,136.285 -37.408,136.186C-37.545,135.923 -37.793,135.533 -38.236,135.151C-38.443,133.15 -38.65,131.149 -38.857,129.148C-38.722,128.465 -39.131,127.934 -39.479,127.905C-39.811,127.878 -40.274,128.293 -40.307,128.941C-40.444,131.01 -40.583,133.081 -40.721,135.151C-40.901,135.65 -41.037,136.074 -41.135,136.393C-41.424,137.342 -41.44,137.596 -41.342,137.842C-41.208,138.175 -40.914,138.365 -40.721,138.464L-40.721,139.499C-40.908,139.644 -41.13,139.847 -41.342,140.12C-41.423,140.223 -41.881,140.81 -41.963,141.362C-42.081,142.159 -41.344,142.422 -40.928,143.432C-40.473,144.535 -41.127,144.764 -41.135,147.573C-41.138,148.777 -41.019,149.142 -41.342,149.643C-41.795,150.345 -42.475,150.319 -42.791,151.092C-43.063,151.76 -42.826,152.443 -42.791,152.542C-42.498,153.347 -41.896,153.357 -41.756,153.99C-41.695,154.264 -41.735,154.588 -42.377,155.646C-43.156,156.933 -43.473,157.079 -43.826,157.717C-44.651,159.207 -44.43,161.132 -44.033,161.236C-44.006,161.244 -43.979,161.228 -43.953,161.217C-43.992,161.462 -44.033,161.706 -44.033,161.961C-44.033,163.037 -43.673,164.03 -43.066,164.85L-44.654,167.033C-44.861,166.895 -45.068,166.757 -45.275,166.619C-45.333,166.925 -45.447,167.371 -45.689,167.861C-46.17,168.831 -46.873,169.401 -48.588,170.552C-51.03,172.192 -51.176,172.092 -51.9,172.83C-52.816,173.763 -53.289,174.644 -53.557,175.314C-53.812,175.954 -54.061,176.576 -53.971,177.384C-53.865,178.332 -53.337,179.151 -53.143,179.455C-52.747,180.068 -52.435,180.29 -52.314,180.904C-52.269,181.136 -52.233,181.508 -52.107,181.525C-52.019,181.537 -51.929,181.371 -51.9,181.318C-51.705,180.962 -51.462,180.633 -51.222,180.302C-51.498,180.678 -51.733,181.093 -51.928,181.544C-52.147,181.624 -52.364,181.775 -52.505,181.939C-52.722,182.19 -52.789,182.482 -52.799,182.741C-53.48,181.961 -54.296,181.498 -55.006,181.111C-56.73,180.17 -57.401,180.368 -58.317,179.455C-58.901,178.873 -59.198,178.224 -59.353,177.799C-59.601,178.901 -59.396,179.511 -59.146,179.869C-58.934,180.173 -58.705,180.27 -58.524,180.697C-58.303,181.222 -58.475,181.49 -58.317,181.939C-58.217,182.226 -57.971,182.62 -57.282,182.974C-57.382,183.3 -57.462,183.761 -57.282,184.217C-57.069,184.757 -56.603,184.998 -56.248,185.251C-55.73,185.621 -55.086,186.275 -54.592,187.528C-54.7,187.46 -54.916,187.343 -55.213,187.321C-55.627,187.29 -55.934,187.462 -56.041,187.528C-55.467,188.292 -55.166,188.965 -55.006,189.391C-53.946,192.2 -55.157,194.324 -53.764,196.223C-53.455,196.643 -53.121,196.914 -52.936,197.051C-52.988,197.17 -53.313,197.932 -52.936,198.708C-52.689,199.212 -52.075,199.869 -51.279,199.743C-50.988,199.697 -50.723,199.552 -50.507,199.342C-50.16,200.234 -49.803,200.715 -49.412,201.036C-49.26,201.193 -49.094,201.304 -48.915,201.36C-48.496,201.591 -48.097,201.714 -47.811,201.77C-47.795,201.787 -47.774,201.795 -47.76,201.813C-47.536,202.092 -47.545,202.445 -47.553,202.641C-47.633,204.722 -47.674,205.762 -47.967,206.161C-48.384,206.727 -48.959,207.035 -49.45,207.207C-49.541,207.169 -49.639,207.131 -49.727,207.092C-50.97,207.416 -52.742,207.82 -54.902,208.128C-56.941,208.417 -58.677,208.664 -60.905,208.542C-62.354,208.462 -64.483,208.198 -66.997,207.338C-67.106,207.199 -67.236,207.074 -67.427,206.989C-67.304,207.703 -67.568,209.572 -66.392,210.923C-66.184,211.161 -65.771,211.617 -65.164,212.063C-65.402,212.856 -65.654,213.657 -65.914,214.461C-66.651,216.171 -67.367,217.955 -68.048,219.824C-68.467,220.977 -68.85,222.116 -69.215,223.248C-69.461,223.451 -69.832,223.689 -70.325,223.758C-70.828,223.828 -71.254,223.69 -71.981,223.343C-72.629,223.036 -73.493,222.574 -74.466,221.894C-74.523,222.688 -74.468,223.369 -74.382,223.924C-74.369,224.26 -74.339,224.614 -74.259,225C-74.198,225.288 -73.933,226.466 -73.017,227.691C-72.633,228.204 -72.369,228.409 -72.107,228.593C-71.794,228.906 -71.506,229.142 -71.245,229.334C-71.22,229.363 -71.197,229.383 -71.17,229.415C-71.141,229.45 -71.081,229.503 -71.008,229.53C-71.838,232.832 -72.462,236.004 -72.917,239.01C-73.111,239.737 -73.238,240.863 -73.431,242.597C-73.566,243.828 -73.669,244.806 -73.701,245.638C-73.75,246.215 -73.807,246.8 -73.845,247.358C-73.731,247.983 -73.44,249.054 -72.603,250.05C-70.737,252.265 -67.815,252.142 -67.427,252.12C-66.679,251.968 -65.881,251.778 -65.047,251.549C-64.521,251.441 -63.971,251.298 -63.286,251.085C-60.416,250.192 -58.317,249.12 -58.11,249.014C-57.962,248.938 -57.785,248.852 -57.624,248.771C-57.598,248.91 -57.564,249.034 -57.52,249.14C-57.618,249.618 -57.58,249.988 -57.489,250.257C-57.482,250.277 -57.475,250.294 -57.467,250.313C-57.475,250.362 -57.481,250.416 -57.489,250.464C-57.465,250.454 -57.443,250.445 -57.419,250.434C-57.401,250.475 -57.387,250.515 -57.37,250.552C-57.432,250.702 -57.528,250.873 -57.696,251.085C-57.807,251.223 -57.919,251.34 -58.03,251.446C-58.138,251.463 -58.239,251.478 -58.317,251.499C-58.653,251.588 -58.888,251.864 -59.074,252.248C-59.693,252.814 -59.732,253.909 -59.748,254.916C-59.817,255.287 -59.889,255.667 -59.974,256.053C-60.21,257.125 -61.062,260.823 -63.079,262.057C-63.316,262.203 -63.838,262.511 -64.528,262.471C-65.391,262.421 -65.981,261.856 -66.185,261.643C-66.216,261.721 -66.249,261.81 -66.283,261.909C-66.32,261.887 -66.354,261.873 -66.392,261.85C-67.235,263.374 -67.14,265.131 -66.185,266.198C-65.905,266.509 -65.582,266.722 -65.254,266.876C-65.149,266.998 -65.045,267.119 -64.942,267.233C-64.356,267.888 -63.779,268.34 -63.351,268.635C-63.743,270.031 -64.136,271.427 -64.528,272.823C-64.455,272.974 -64.375,273.08 -64.295,273.168C-64.251,273.271 -64.195,273.368 -64.114,273.444C-63.972,273.578 -63.807,273.63 -63.7,273.651C-64.666,279.309 -65.633,284.968 -66.599,290.627C-67.496,290.35 -68.393,290.075 -69.29,289.799C-69.881,292.31 -70.067,294.45 -70.118,296.009C-70.18,297.921 -70.228,299.881 -69.497,302.22C-68.843,304.317 -67.982,305.377 -67.427,305.947C-66.961,306.425 -66.513,306.761 -66.185,306.981C-66.115,307.465 -66.047,307.948 -65.978,308.43C-67.821,306.35 -69.389,304.667 -70.532,303.463C-72.479,301.411 -72.86,301.098 -73.431,300.771C-76.283,299.133 -79.725,299.491 -80.056,299.529C-81.581,299.705 -82.542,300.146 -83.988,299.736C-85.217,299.387 -86.059,298.908 -86.059,298.908C-86.781,298.496 -86.913,298.27 -87.508,298.08C-88.358,297.806 -88.689,298.076 -89.371,297.873C-89.817,297.74 -90.434,297.398 -91.027,296.424C-90.833,297.446 -90.477,298.825 -89.785,300.357C-89.661,300.633 -89.121,301.809 -88.129,303.256C-87.21,304.595 -86.263,305.976 -84.609,307.188C-83.751,307.819 -82.175,308.791 -79.849,309.258L-79.849,310.087C-80.449,310.095 -81.314,310.066 -82.332,309.88C-83.681,309.633 -84.812,309.427 -85.852,308.637C-87.006,307.761 -86.747,307.156 -88.129,306.154C-88.616,305.8 -88.793,305.77 -89.992,305.119C-91.064,304.536 -91.916,304.02 -92.477,303.67C-92.422,304.53 -92.31,305.746 -92.063,307.188C-91.752,309.007 -91.573,310.051 -91.027,311.329C-90.877,311.681 -90.094,313.469 -88.336,315.262C-87.477,316.14 -86.105,317.302 -84.195,318.161C-81.77,319.253 -81.071,318.685 -78.606,319.61C-76.183,320.519 -76.674,321.136 -73.638,322.716C-71.521,323.816 -70.884,323.723 -65.978,325.614C-64.632,326.133 -63.548,326.576 -62.872,326.856C-62.113,332.377 -61.354,337.897 -60.595,343.418C-61.012,342.844 -62.125,341.473 -64.114,340.726C-65.725,340.123 -67.138,340.217 -67.841,340.312C-69.595,342.038 -70.471,343.668 -70.946,344.867C-71.104,345.263 -71.206,345.588 -71.296,345.904L-92.658,345.904C-92.866,345.207 -93.074,344.508 -93.282,343.811C-94.252,343.743 -95.255,343.679 -96.275,343.619L-100.266,330.637C-101.773,328.438 -104.148,325.279 -107.513,321.94C-111.771,317.715 -116.402,314.409 -121.21,311.798C-125.134,294.334 -129.058,276.871 -132.981,259.407C-136.916,259.545 -140.85,259.683 -144.784,259.821C-147.2,258.504 -149.615,257.185 -152.031,255.868L-152.031,244.085L-144.784,244.085L-152.031,239.039L-152.031,237.976L-152.859,237.976L-152.859,233.214L-152.031,233.214L-152.031,231.1L-168.907,231.1C-167.102,231.057 -165.295,231.013 -163.489,230.97C-163.547,229.038 -163.604,227.105 -163.661,225.173C-162.711,224.542 -162.604,224.203 -162.626,223.999C-162.682,223.476 -162.984,223.317 -163.327,223.221C-163.471,223.138 -163.627,223.079 -163.804,223.079L-163.858,223.079C-164.187,222.971 -164.455,222.779 -164.455,222.205C-164.455,221.52 -164.39,221.174 -164.179,220.169C-163.929,218.972 -163.716,217.959 -164.214,217.201C-164.562,216.668 -165.478,215.934 -165.663,215.786C-165.936,215.567 -166.145,215.423 -166.181,215.165C-166.251,214.659 -165.568,214.368 -165.663,213.957C-165.663,213.956 -165.664,213.955 -165.665,213.954C-165.665,213.951 -165.663,213.949 -165.663,213.946L-165.663,213.928C-165.663,213.652 -165.888,213.427 -166.164,213.427L-166.397,213.427C-166.463,213.375 -166.525,213.319 -166.561,213.232C-166.703,212.869 -166.352,212.529 -166.193,212.16C-166.151,212.088 -166.121,212.008 -166.121,211.92L-166.121,211.866C-166.121,211.854 -166.126,211.845 -166.127,211.835C-166.129,211.783 -166.129,211.732 -166.146,211.678C-166.3,211.193 -166.963,211.236 -167.043,210.782C-167.083,210.559 -166.954,210.382 -166.828,210.208C-166.637,210.161 -166.491,209.996 -166.491,209.79L-166.491,209.647C-166.491,209.405 -166.687,209.209 -166.93,209.209L-167.124,209.209C-167.193,209.154 -167.253,209.089 -167.285,208.987C-167.418,208.566 -166.881,208.276 -167.009,207.848C-167.116,207.49 -167.531,207.57 -167.699,207.192C-167.912,206.715 -167.379,206.295 -167.562,205.777C-167.668,205.472 -167.968,205.295 -168.217,205.191C-168.354,203.155 -168.493,201.119 -168.631,199.083C-168.077,198.928 -167.689,198.487 -167.665,198.012C-167.63,197.345 -168.325,196.872 -168.907,196.804C-169.521,196.734 -170.331,197.08 -170.426,197.771C-170.498,198.296 -170.135,198.864 -169.528,199.083C-169.551,201.119 -169.574,203.155 -169.598,205.191C-170.137,205.451 -170.309,205.729 -170.356,205.95C-170.475,206.494 -169.896,206.967 -170.115,207.331C-170.249,207.553 -170.513,207.452 -170.633,207.675C-170.826,208.036 -170.228,208.462 -170.391,208.918C-170.509,209.248 -170.871,209.167 -171.012,209.505C-171.203,209.961 -170.627,210.309 -170.771,210.816C-170.912,211.316 -171.559,211.281 -171.634,211.714C-171.65,211.813 -171.625,211.904 -171.584,211.991C-171.56,212.153 -171.461,212.291 -171.315,212.357C-171.141,212.55 -170.969,212.745 -171.012,212.99C-171.087,213.416 -171.705,213.419 -171.771,213.853C-171.834,214.263 -171.311,214.449 -171.288,214.992C-171.28,215.193 -171.342,215.401 -171.668,215.854C-172.433,216.92 -172.852,216.838 -173.256,217.546C-173.285,217.598 -173.777,218.491 -173.531,219.478C-173.408,219.972 -173.198,220.095 -173.014,220.513C-172.795,221.008 -172.662,221.804 -173.145,223.079L-173.493,223.079C-173.867,223.079 -174.183,223.298 -174.345,223.608C-174.543,223.843 -174.656,224.13 -174.636,224.413C-174.6,224.922 -174.15,225.4 -173.531,225.517L-173.531,231.1L-195.522,231.1C-195.688,228.059 -196.59,226.168 -197.43,224.982C-197.719,224.576 -198.675,223.3 -199.967,221.825C-201.248,220.361 -201.646,220.085 -201.934,219.341C-202.245,218.533 -202.426,217.171 -201.364,214.992C-203.068,213.435 -204.171,212.222 -204.863,211.266C-204.837,211.175 -204.807,211.086 -204.807,210.986C-204.807,210.496 -205.158,210.104 -205.618,210.002C-205.906,209.346 -205.919,208.876 -205.786,208.531C-205.65,208.395 -205.571,208.215 -205.528,208.021C-205.347,207.671 -205.174,207.24 -205.351,206.865C-205.594,206.345 -206.295,206.375 -206.541,205.725C-206.576,205.633 -206.559,205.641 -206.593,204.845C-206.64,203.754 -206.678,203.628 -206.748,203.5C-206.992,203.054 -207.305,203.165 -207.473,202.775C-207.696,202.258 -207.195,201.948 -207.369,201.378C-207.524,200.868 -207.978,200.934 -208.301,200.291C-208.35,200.194 -208.451,199.968 -208.508,199.151C-208.536,198.75 -208.535,198.456 -208.527,198.218C-208.524,198.185 -208.508,198.157 -208.508,198.123C-208.508,198.099 -208.52,198.08 -208.521,198.057C-208.51,197.809 -208.494,197.629 -208.508,197.443C-208.595,196.3 -209.766,195.548 -210.164,195.217C-213.023,192.849 -208.854,185.185 -211.925,181.914C-213.566,180.165 -216.71,180.273 -216.843,178.652C-216.878,178.217 -216.701,177.591 -216.895,176.426C-217.053,175.47 -217.284,175.211 -217.36,175.132C-217.85,174.623 -218.416,174.824 -218.758,174.303C-218.977,173.97 -218.943,173.585 -218.913,173.217C-218.846,172.418 -218.486,172.297 -218.499,171.664C-218.511,171.047 -218.863,170.598 -218.965,170.473C-219.475,169.842 -220.184,169.721 -220.362,169.697L-220.362,166.125C-220.052,166.106 -219.741,166.088 -219.431,166.07L-219.431,165.038L-220.466,164.417C-220.585,163.722 -220.621,163.585 -220.621,163.585C-220.794,162.935 -221.014,162.974 -221.087,162.501C-221.158,162.038 -220.952,161.97 -221.035,161.517C-221.045,161.467 -221.061,161.437 -221.073,161.396C-221.073,161.392 -221.07,161.388 -221.07,161.384L-221.07,161.363C-221.07,161.112 -221.21,160.902 -221.408,160.779C-221.439,160.72 -221.472,160.666 -221.501,160.586C-221.567,160.408 -221.581,160.273 -221.579,160.148C-221.469,160.026 -221.397,159.869 -221.397,159.692L-221.397,159.638C-221.397,159.482 -221.459,159.345 -221.547,159.23C-221.552,159.195 -221.547,159.174 -221.553,159.136C-221.618,158.738 -221.723,158.674 -221.951,158.172C-221.886,158.069 -221.838,157.954 -221.838,157.822L-221.838,157.73C-221.838,157.409 -222.07,157.154 -222.373,157.092C-222.441,156.893 -222.491,156.724 -222.516,156.574C-222.271,156.482 -222.097,156.252 -222.097,155.975L-222.097,155.842C-222.097,155.651 -222.185,155.483 -222.317,155.366C-222.301,155.271 -222.298,155.172 -222.33,155.047C-222.403,154.753 -222.578,154.63 -222.756,154.487C-222.703,154.397 -222.666,154.298 -222.666,154.186L-222.666,154.003C-222.666,153.7 -222.887,153.461 -223.174,153.406C-223.124,153.202 -223.057,152.98 -223.104,152.605C-223.046,152.511 -223.003,152.408 -223.003,152.29L-223.003,152.068C-223.003,151.752 -223.251,151.499 -223.562,151.476C-223.59,151.387 -223.613,151.288 -223.624,151.161C-223.632,151.062 -223.623,150.995 -223.617,150.922C-223.482,150.816 -223.391,150.66 -223.391,150.475L-223.391,150.207C-223.391,150.029 -223.476,149.877 -223.602,149.771C-223.724,149.472 -223.896,149.321 -223.961,148.992C-223.749,148.91 -223.598,148.707 -223.598,148.467L-223.598,148.178C-223.598,148.008 -223.678,147.858 -223.799,147.755C-223.851,147.446 -224.021,147.27 -224.171,147.032C-224.111,146.946 -224.069,146.846 -224.069,146.734L-224.069,146.39C-224.069,146.175 -224.197,145.993 -224.38,145.907C-224.364,145.806 -224.355,145.703 -224.4,145.522C-224.465,145.26 -224.563,145.121 -224.65,144.981C-224.596,144.881 -224.556,144.77 -224.556,144.647C-224.556,144.449 -224.638,144.27 -224.769,144.141C-224.735,144.036 -224.701,143.922 -224.711,143.71C-224.732,143.256 -224.915,143.235 -224.97,142.778C-225.037,142.214 -224.771,142.126 -224.866,141.639C-224.955,141.185 -225.196,141.217 -225.28,140.759C-225.371,140.263 -225.104,140.13 -225.229,139.673C-225.332,139.291 -225.541,139.295 -225.591,138.948C-225.645,138.577 -225.416,138.506 -225.384,138.067C-225.349,137.586 -225.616,137.538 -225.694,136.877C-225.748,136.428 -225.632,136.388 -225.694,135.893C-225.746,135.482 -225.846,135.358 -225.933,135.013C-226.093,134.38 -225.941,134.076 -225.933,133.409C-225.928,132.994 -225.977,132.392 -226.243,131.648C-226.75,123.728 -227.258,115.808 -227.765,107.888C-227.276,107.404 -227.216,107.069 -227.257,106.85C-227.33,106.454 -227.754,106.321 -227.816,105.869C-227.857,105.577 -227.725,105.316 -227.609,105.144C-227.765,104.954 -227.92,104.765 -228.076,104.575C-228.127,100.019 -228.18,95.464 -228.23,90.909C-228.282,92.405 -228.333,93.902 -228.385,95.398C-228.488,98.44 -228.593,101.481 -228.697,104.523C-228.9,104.649 -229.17,104.862 -229.267,105.196C-229.36,105.522 -229.196,105.645 -229.267,105.972C-229.385,106.529 -229.951,106.603 -230.004,107.013C-230.029,107.207 -229.944,107.508 -229.37,107.94C-229.777,124.183 -230.057,130.65 -230.25,131.7C-230.264,131.773 -230.422,132.601 -230.561,133.719C-230.649,134.436 -230.693,134.795 -230.716,135.272C-230.762,136.263 -230.663,136.432 -230.768,137.135C-230.872,137.842 -230.987,137.78 -231.078,138.426C-231.217,139.412 -230.95,139.556 -231.078,140.449C-231.2,141.3 -231.451,141.229 -231.544,142.053C-231.636,142.866 -231.397,142.978 -231.492,143.865C-231.508,144.007 -231.521,144.081 -231.549,144.184C-231.658,144.309 -231.73,144.467 -231.73,144.647C-231.73,144.692 -231.713,144.731 -231.705,144.774C-231.741,144.919 -231.782,145.088 -231.834,145.315C-231.899,145.599 -231.937,145.775 -231.967,145.926C-232.132,146.018 -232.248,146.188 -232.248,146.39L-232.248,146.734C-232.248,146.819 -232.224,146.897 -232.188,146.968C-232.271,147.325 -232.327,147.551 -232.367,147.709C-232.525,147.808 -232.637,147.977 -232.637,148.178L-232.637,148.467C-232.637,148.611 -232.578,148.741 -232.488,148.841C-232.472,149.112 -232.434,149.311 -232.476,149.715C-232.477,149.723 -232.478,149.729 -232.479,149.737C-232.633,149.841 -232.74,150.008 -232.74,150.207L-232.74,150.475C-232.74,150.522 -232.724,150.564 -232.713,150.608C-232.766,150.753 -232.824,150.923 -232.89,151.164C-232.953,151.4 -232.988,151.575 -233.011,151.731C-233.079,151.828 -233.128,151.94 -233.128,152.068L-233.128,152.29C-233.128,152.373 -233.111,152.452 -233.08,152.524C-233.101,152.742 -233.133,153.008 -233.2,153.39C-233.211,153.45 -233.221,153.493 -233.23,153.547C-233.356,153.66 -233.438,153.82 -233.438,154.003L-233.438,154.186C-233.438,154.235 -233.422,154.278 -233.411,154.324C-233.513,154.675 -233.58,154.81 -233.614,155.305C-233.618,155.354 -233.617,155.39 -233.619,155.436C-233.713,155.548 -233.775,155.686 -233.775,155.842L-233.775,155.975C-233.775,156.112 -233.723,156.232 -233.65,156.337C-233.665,156.542 -233.692,156.753 -233.77,157.013C-233.781,157.052 -233.791,157.073 -233.803,157.106C-234.07,157.192 -234.267,157.433 -234.267,157.73L-234.267,157.822C-234.267,157.903 -234.247,157.978 -234.221,158.05C-234.402,158.546 -234.442,158.914 -234.484,159.351C-234.525,159.439 -234.552,159.535 -234.552,159.638L-234.552,159.692C-234.552,159.728 -234.536,159.759 -234.531,159.795C-234.557,160.01 -234.592,160.25 -234.65,160.534C-234.701,160.783 -234.742,160.931 -234.78,161.051C-234.802,161.092 -234.813,161.137 -234.826,161.183C-234.892,161.361 -234.959,161.52 -235.064,161.983C-235.481,163.815 -235.179,164.632 -235.789,165.141C-235.945,165.272 -236.236,165.443 -236.772,165.449C-236.755,165.846 -236.738,166.245 -236.721,166.642L-235.789,166.798C-235.771,167.781 -235.754,168.764 -235.737,169.749C-235.969,169.789 -236.645,169.936 -237.083,170.525C-237.516,171.105 -237.472,171.785 -237.445,172.181C-237.377,173.226 -236.895,173.384 -236.996,174.028C-237.115,174.771 -237.807,174.854 -238.377,175.684C-239.062,176.681 -238.748,177.556 -238.93,178.445C-239.373,180.622 -242.281,180.412 -243.898,182.31C-247.12,186.091 -242.689,195.255 -245.279,196.804C-245.428,196.893 -245.674,197.008 -245.92,197.168C-246.202,197.275 -246.417,197.503 -246.517,197.789C-246.566,197.874 -246.629,197.947 -246.66,198.047C-246.872,198.733 -246.418,199.234 -246.66,199.979C-246.834,200.517 -247.268,200.867 -247.626,201.084C-247.626,201.084 -247.224,202.3 -247.626,203.155C-247.953,203.849 -248.546,203.745 -248.73,204.397C-248.887,204.951 -248.488,205.132 -248.592,205.777C-248.71,206.509 -249.255,206.488 -249.559,207.296C-249.894,208.189 -249.342,208.518 -249.696,209.367C-250.007,210.11 -250.532,210.098 -250.663,210.747C-250.794,211.397 -250.341,211.775 -250.249,212.265C-250.121,212.948 -250.657,214.048 -253.699,215.854C-253.699,215.854 -252.926,217.24 -252.871,218.615C-252.861,218.871 -252.842,219.554 -253.147,220.272C-253.855,221.93 -255.479,221.846 -256.599,223.585C-256.798,223.894 -256.961,224.23 -257.289,225.38C-257.661,226.684 -258.118,228.596 -258.437,231.1L-278.595,231.1C-278.642,229.544 -278.687,227.986 -278.734,226.429C-277.783,225.799 -277.677,225.46 -277.698,225.256C-277.754,224.733 -278.057,224.574 -278.4,224.478C-278.543,224.395 -278.699,224.336 -278.876,224.336L-278.931,224.336C-279.26,224.227 -279.527,224.035 -279.527,223.461C-279.527,222.777 -279.462,222.429 -279.252,221.425C-279.001,220.229 -278.789,219.215 -279.286,218.457C-279.636,217.925 -280.55,217.191 -280.735,217.042C-281.009,216.823 -281.217,216.679 -281.253,216.421C-281.323,215.916 -280.641,215.624 -280.735,215.213C-280.736,215.212 -280.737,215.212 -280.737,215.211C-280.737,215.208 -280.735,215.206 -280.735,215.203L-280.735,215.185C-280.735,214.909 -280.96,214.684 -281.236,214.684L-281.47,214.684C-281.535,214.632 -281.599,214.576 -281.633,214.488C-281.776,214.125 -281.424,213.786 -281.266,213.416C-281.224,213.344 -281.193,213.265 -281.193,213.176L-281.193,213.122C-281.193,213.111 -281.199,213.102 -281.199,213.092C-281.201,213.04 -281.202,212.988 -281.219,212.935C-281.372,212.45 -282.035,212.493 -282.116,212.038C-282.155,211.816 -282.027,211.637 -281.9,211.464C-281.709,211.417 -281.563,211.253 -281.563,211.047L-281.563,210.904C-281.563,210.662 -281.76,210.466 -282.002,210.466L-282.196,210.466C-282.266,210.411 -282.326,210.344 -282.357,210.244C-282.49,209.823 -281.953,209.532 -282.082,209.104C-282.189,208.746 -282.604,208.827 -282.771,208.449C-282.984,207.971 -282.451,207.55 -282.634,207.034C-282.741,206.729 -283.04,206.551 -283.289,206.447C-283.428,204.411 -283.565,202.375 -283.703,200.339C-283.149,200.185 -282.762,199.744 -282.737,199.269C-282.702,198.602 -283.397,198.128 -283.979,198.061C-284.594,197.991 -285.403,198.337 -285.498,199.027C-285.57,199.552 -285.207,200.12 -284.601,200.339C-284.624,202.375 -284.646,204.411 -284.67,206.447C-285.209,206.708 -285.381,206.986 -285.429,207.207C-285.547,207.751 -284.969,208.223 -285.187,208.587C-285.321,208.81 -285.585,208.709 -285.705,208.932C-285.899,209.293 -285.301,209.717 -285.464,210.175C-285.581,210.504 -285.943,210.423 -286.085,210.761C-286.275,211.217 -285.699,211.566 -285.843,212.072C-285.984,212.572 -286.632,212.538 -286.706,212.969C-286.723,213.07 -286.698,213.161 -286.657,213.248C-286.632,213.41 -286.533,213.547 -286.389,213.613C-286.214,213.806 -286.042,214.001 -286.085,214.247C-286.159,214.672 -286.777,214.675 -286.844,215.109C-286.906,215.519 -286.384,215.706 -286.361,216.248C-286.353,216.45 -286.415,216.658 -286.74,217.111C-287.505,218.176 -287.924,218.094 -288.328,218.802C-288.358,218.855 -288.85,219.747 -288.604,220.735C-288.48,221.229 -288.271,221.352 -288.086,221.77C-287.868,222.264 -287.734,223.06 -288.217,224.336L-288.565,224.336C-288.94,224.336 -289.256,224.554 -289.417,224.865C-289.615,225.1 -289.729,225.386 -289.708,225.67C-289.672,226.178 -289.223,226.656 -288.604,226.774L-288.604,231.1L-301.635,231.1L-301.635,233.214L-300.703,233.214L-300.703,237.976L-301.635,237.976L-301.635,239.425L-301.484,239.425L-307.329,244.085L-300.496,244.085L-300.496,257.13C-302.773,258.648 -305.052,260.167 -307.329,261.685C-311.194,261.063 -315.06,260.442 -318.925,259.821L-318.925,260.856L-319.96,260.856C-320.029,262.306 -320.099,263.756 -320.167,265.205C-322.486,274.539 -324.806,283.872 -327.125,293.206C-330.972,245.672 -334.817,198.138 -338.664,150.604C-334.28,139.249 -329.897,127.893 -325.514,116.537C-322.936,115.958 -320.357,115.379 -317.778,114.8C-317.907,112.714 -318.036,110.628 -318.165,108.542C-314.685,103.212 -311.203,97.882 -307.723,92.551C-309.49,92.523 -316.648,92.59 -322.033,97.418C-324.047,99.224 -325.215,101.16 -325.9,102.633C-330.155,102.517 -334.41,102.401 -338.664,102.285C-340.727,99.852 -342.79,97.418 -344.853,94.985C-346.786,97.187 -348.72,99.388 -350.654,101.59L-368.832,101.59C-370.54,100.678 -373.973,98.566 -376.567,94.637C-379.259,90.561 -379.619,86.693 -379.662,84.904C-379.669,86.578 -379.938,90.532 -382.756,94.637C-385.649,98.853 -389.598,100.851 -391.265,101.59C-397.066,101.474 -402.868,101.358 -408.669,101.242C-410.216,98.461 -411.763,95.68 -413.311,92.899C-415.631,95.796 -417.952,98.693 -420.272,101.59C-424.655,101.242 -429.039,100.894 -433.422,100.547C-434.815,98.639 -436.7,96.45 -439.224,94.29C-444.558,89.723 -450.217,87.447 -453.921,86.295C-449.795,92.783 -445.67,99.272 -441.544,105.761L-441.544,113.409L-434.583,113.409C-429.812,125.344 -425.042,137.279 -420.272,149.214C-424.482,199.069 -428.693,248.924 -432.903,298.779L-454.524,298.779L-454.524,278.663C-453.648,278.505 -452.427,278.172 -451.235,277.425C-450.648,277.058 -449.543,276.366 -448.96,275.148C-448.475,274.133 -448.566,273.202 -448.645,272.392C-448.75,271.322 -449.053,270.823 -448.995,269.553C-448.948,268.526 -448.724,268.272 -448.575,268.147C-447.716,267.425 -445.809,267.982 -445.636,268.035C-445.131,267.285 -444.43,265.99 -444.375,264.324C-444.369,264.132 -444.357,263.476 -444.585,262.468C-444.827,261.404 -445.393,259.701 -446.896,257.745C-446.754,258.496 -446.608,259.586 -446.64,260.923C-446.65,261.371 -446.677,261.693 -446.686,261.794C-446.749,262.521 -446.878,264.013 -447.525,265.336C-447.868,266.036 -448.454,266.646 -449.625,267.866C-450.445,268.72 -451.431,269.738 -452.985,270.903C-453.735,271.465 -454.716,272.127 -455.916,272.8L-494,272.8L-494,255.613C-493.227,255.417 -492.309,255.089 -491.41,254.525C-490.823,254.158 -489.719,253.466 -489.136,252.248C-488.65,251.233 -488.741,250.301 -488.821,249.493C-488.926,248.423 -489.229,247.924 -489.171,246.653C-489.124,245.626 -488.899,245.372 -488.751,245.248C-487.892,244.524 -485.984,245.083 -485.811,245.134C-485.307,244.384 -484.605,243.091 -484.551,241.424C-484.545,241.232 -484.532,240.576 -484.761,239.568C-485.002,238.504 -485.568,236.801 -487.071,234.844C-486.93,235.595 -486.784,236.685 -486.815,238.022C-486.826,238.471 -486.852,238.794 -486.861,238.893C-486.924,239.621 -487.053,241.113 -487.701,242.436C-488.043,243.135 -488.629,243.746 -489.801,244.966C-490.62,245.82 -491.606,246.839 -493.16,248.003C-493.895,248.553 -494.849,249.199 -496.014,249.858L-538.271,249.858C-538.487,249.53 -538.7,249.205 -538.935,248.846C-539.992,247.233 -541.327,245.068 -542.715,242.436C-542.403,242.414 -541.115,242.294 -540.195,241.424C-539.508,240.774 -539.399,240.059 -539.355,239.737C-539.219,238.735 -539.685,237.968 -539.915,237.6C-540.258,237.052 -540.528,236.907 -541.035,236.363C-541.504,235.858 -542.1,235.094 -542.575,234.002L-543.834,225.904C-544.395,228.678 -544.955,231.452 -545.515,234.226C-546.005,234.773 -546.635,235.565 -547.194,236.588C-547.729,237.566 -548.172,238.398 -548.174,239.511C-548.175,240.216 -548.177,241.559 -547.054,242.098C-546.336,242.443 -545.489,242.301 -545.095,242.211C-545.774,243.725 -546.723,245.615 -548.034,247.721C-548.446,248.384 -548.895,249.1 -549.402,249.858L-589.451,249.858L-589.434,249.802C-591.039,248.971 -592.291,248.132 -593.213,247.44C-594.767,246.276 -595.753,245.258 -596.572,244.404C-597.744,243.183 -598.33,242.573 -598.672,241.874C-599.32,240.55 -599.449,239.058 -599.512,238.331C-599.521,238.231 -599.548,237.909 -599.558,237.461C-599.589,236.123 -599.443,235.033 -599.302,234.282C-600.805,236.239 -601.371,237.941 -601.612,239.006C-601.841,240.014 -601.828,240.67 -601.822,240.861C-601.768,242.528 -601.066,243.823 -600.562,244.573C-600.389,244.52 -598.481,243.962 -597.623,244.685C-597.474,244.81 -597.25,245.063 -597.203,246.091C-597.145,247.361 -597.447,247.86 -597.552,248.93C-597.632,249.739 -597.723,250.671 -597.237,251.686C-596.655,252.904 -595.55,253.595 -594.963,253.964C-594.481,254.264 -593.996,254.494 -593.529,254.676L-593.529,272.8L-631.157,272.8C-632.357,272.127 -633.338,271.465 -634.088,270.903C-635.642,269.738 -636.628,268.72 -637.448,267.866C-638.62,266.646 -639.205,266.036 -639.548,265.336C-640.195,264.013 -640.325,262.521 -640.388,261.794C-640.396,261.693 -640.423,261.371 -640.434,260.923C-640.465,259.586 -640.319,258.496 -640.178,257.745C-641.68,259.701 -642.246,261.404 -642.487,262.468C-642.716,263.476 -642.704,264.132 -642.697,264.324C-642.644,265.99 -641.942,267.285 -641.437,268.035C-641.264,267.982 -639.357,267.425 -638.498,268.147C-638.35,268.272 -638.125,268.526 -638.078,269.553C-638.02,270.823 -638.323,271.322 -638.428,272.392C-638.507,273.202 -638.599,274.133 -638.113,275.148C-637.53,276.366 -636.425,277.058 -635.838,277.425C-634.662,278.162 -633.459,278.496 -632.585,278.656L-632.585,298.779L-677.858,298.779C-679.211,298.043 -680.306,297.311 -681.123,296.699C-682.677,295.534 -683.663,294.516 -684.483,293.662C-685.654,292.441 -686.24,291.832 -686.583,291.132C-687.23,289.809 -687.359,288.317 -687.422,287.59C-687.431,287.489 -687.458,287.167 -687.468,286.718C-687.5,285.382 -687.354,284.292 -687.212,283.541C-688.715,285.498 -689.281,287.2 -689.522,288.264C-689.751,289.272 -689.738,289.927 -689.732,290.12C-689.678,291.787 -688.977,293.081 -688.472,293.831C-688.299,293.778 -686.392,293.22 -685.533,293.943C-685.384,294.068 -685.16,294.322 -685.113,295.349C-685.055,296.619 -685.358,297.118 -685.463,298.188C-685.542,298.998 -685.633,299.929 -685.148,300.944C-684.565,302.162 -683.46,302.854 -682.873,303.221C-682.195,303.645 -681.509,303.933 -680.879,304.135L-680.879,316.323L-717.397,316.323L-717.379,316.267C-718.984,315.436 -720.237,314.596 -721.159,313.905C-722.712,312.741 -723.699,311.722 -724.519,310.869C-725.69,309.648 -726.276,309.038 -726.618,308.339C-727.266,307.015 -727.395,305.523 -727.458,304.796C-727.467,304.696 -727.494,304.374 -727.504,303.925C-727.535,302.588 -727.389,301.498 -727.248,300.747C-728.75,302.704 -729.316,304.406 -729.558,305.47C-729.787,306.478 -729.774,307.134 -729.768,307.326C-729.714,308.993 -729.012,310.288 -728.508,311.038C-728.334,310.985 -726.427,310.426 -725.568,311.15C-725.42,311.275 -725.195,311.528 -725.148,312.555C-725.09,313.826 -725.394,314.325 -725.498,315.395C-725.578,316.204 -725.669,317.135 -725.184,318.15C-724.601,319.369 -723.496,320.06 -722.909,320.427C-722.023,320.982 -721.121,321.308 -720.355,321.506L-720.355,344.862L-714.911,344.862L-714.911,345.904L-747.634,345.904C-748.404,345.314 -749.267,344.843 -750.197,344.515C-749.654,344.321 -749.106,344.115 -748.552,343.883C-745.418,342.567 -741.255,340.749 -738.929,336.359C-736.917,332.562 -737.229,328.632 -737.354,327.261C-737.596,324.618 -738.388,322.699 -739.104,320.963C-740.028,318.722 -741.153,315.996 -743.478,313.789C-746.191,311.215 -749.308,310.517 -752.051,309.94C-760.129,308.24 -768.12,309.893 -770.772,310.465C-772.031,310.737 -775.169,310.762 -781.445,310.815C-782.085,310.82 -783.524,310.814 -784.069,309.94C-784.503,309.244 -784.174,308.312 -784.069,308.015C-783.562,306.58 -782.431,306.306 -781.27,305.041C-780.38,304.071 -780.037,303.133 -779.521,301.716C-778.142,297.939 -779.585,293.523 -779.87,292.619C-780.097,291.899 -780.663,282.05 -781.795,262.35C-781.795,262.35 -782.02,258.44 -783.37,247.829C-783.769,244.687 -784.202,241.601 -786.169,238.206C-787.804,235.384 -789.732,233.672 -790.368,233.132C-791.553,232.126 -793.736,230.535 -800.691,228.583C-805.373,227.268 -807.604,227.086 -814.863,225.608C-818.344,224.9 -821.154,224.265 -822.911,223.859C-823.273,223.456 -823.813,222.755 -824.136,221.759C-824.426,220.863 -824.333,219.808 -824.136,217.735C-823.934,215.614 -823.757,215.232 -823.436,214.935C-822.784,214.335 -821.832,214.358 -821.336,214.411C-821.77,215.559 -822.552,218.163 -821.336,220.359C-821.209,220.59 -820.396,222.059 -819.587,221.934C-818.717,221.8 -818.401,219.907 -818.362,219.66C-818.121,218.13 -818.582,216.882 -818.712,216.51C-819.908,213.087 -819.04,208.925 -818.712,207.412C-817.851,203.437 -816.101,203.633 -815.296,199.596C-815.09,198.561 -815.12,198.121 -815.388,193.065C-815.877,183.82 -815.88,183.231 -816.262,181.693C-817.211,177.87 -818.661,175.181 -819.237,174.17C-820.446,172.047 -821.389,170.39 -823.261,168.746C-825.441,166.829 -826.493,167.028 -827.81,165.071C-828.792,163.613 -828.748,162.699 -830.084,161.572C-830.904,160.881 -831.623,160.633 -831.834,159.823C-832.004,159.172 -831.688,158.759 -831.309,157.723C-831.048,157.009 -830.366,155.145 -830.609,153.349C-830.753,152.289 -831.059,152.435 -831.834,150.2C-832.049,149.58 -832.153,149.2 -832.709,147.05C-833.741,143.056 -833.726,143.033 -833.934,142.326C-834.567,140.174 -835.011,139.36 -835.508,137.952C-836.133,136.183 -836.823,133.53 -836.908,129.904C-837.249,133.679 -838.005,136.44 -838.658,138.302C-839.12,139.621 -839.64,140.802 -840.057,142.851C-840.478,144.912 -840.27,145.281 -840.757,147.05C-841.114,148.345 -841.27,148.311 -842.332,151.25C-843.315,153.968 -843.336,154.425 -843.207,154.924C-842.911,156.062 -842.134,156.246 -841.807,157.723C-841.725,158.092 -841.543,158.916 -841.807,159.823C-842.227,161.262 -843.341,161.43 -844.431,162.971C-845.337,164.253 -844.984,164.724 -845.656,165.946C-846.828,168.077 -848.812,168.301 -850.905,169.621C-853.321,171.144 -854.434,173.217 -855.979,176.094C-858.523,180.833 -858.802,185.244 -858.953,187.641C-859.076,189.587 -859.008,191.612 -858.953,193.24C-858.886,195.241 -858.775,196.355 -858.604,197.439C-858.423,198.577 -858.282,199.47 -857.903,200.589C-857.249,202.525 -856.653,202.861 -855.804,204.788C-855.016,206.578 -854.74,208.079 -854.579,208.987C-854.408,209.954 -854.046,212.094 -854.404,214.76C-854.731,217.198 -855.629,219.835 -855.629,219.835C-855.629,219.835 -854.946,221.151 -854.054,221.409C-853.454,221.583 -852.736,221.283 -852.305,220.884C-851.68,220.307 -851.625,219.497 -851.604,216.685C-851.596,215.416 -851.598,214.296 -851.604,213.361C-850.125,214.585 -849.557,215.769 -849.33,216.685C-849.162,217.366 -849.276,217.518 -849.155,219.134C-848.953,221.854 -848.568,222.249 -848.805,222.984C-849.381,224.773 -852.562,225.258 -853.704,225.433C-853.704,225.433 -861.408,226.619 -870.5,228.408C-875.96,229.481 -879.121,230.103 -882.398,232.607C-886.375,235.645 -888.088,239.594 -889.047,241.88C-892.15,249.274 -891.539,256 -891.321,259.55C-890.879,266.771 -891.071,277.115 -893.946,290.694C-897.159,292.507 -899.72,294.376 -901.644,295.943C-902.387,296.549 -905.32,298.971 -908.643,302.766C-910.669,305.082 -912.228,307.208 -913.366,308.89C-915.152,308.788 -917.693,308.748 -920.715,309.065C-925.081,309.524 -927.587,309.789 -930.338,311.34C-935.863,314.457 -937.658,320.113 -937.861,320.788C-938.988,324.535 -938.395,327.651 -938.036,329.536C-937.078,334.569 -934.555,338.014 -933.312,339.508C-932.697,340.248 -930.772,342.457 -926.785,344.633C-927.594,344.953 -928.347,345.383 -929.027,345.904L-940.462,345.904C-940.542,344.922 -940.621,343.94 -940.701,342.958C-941.12,338.634 -941.54,334.31 -941.959,329.986C-942.101,327.706 -942.306,325.103 -942.609,322.246C-942.709,321.302 -942.848,320.097 -943.558,318.712C-944.088,317.674 -944.766,316.873 -945.106,316.474C-945.452,316.069 -946.065,315.358 -947.054,314.594C-947.423,314.309 -948.56,313.464 -950.3,312.76C-951.223,312.387 -952.073,312.154 -952.797,311.999L-952.797,310.702L-953.596,310.702L-953.596,305.915L-953.146,305.915L-953.146,304.438L-952.547,304.438L-952.547,303.544L-951.648,303.544L-951.648,301.799L-960.288,301.799L-960.288,296.563L-960.718,296.563C-959.918,296.563 -959.264,295.909 -959.264,295.109C-959.264,294.31 -959.918,293.656 -960.718,293.656L-966.582,293.656C-964.484,293.64 -962.386,293.626 -960.288,293.61C-960.664,291.739 -961.024,289.832 -961.376,287.908C-961.169,287.737 -961.028,287.489 -961.028,287.201C-961.028,286.793 -961.298,286.456 -961.665,286.331C-961.709,286.078 -961.757,285.829 -961.802,285.575C-961.543,285.409 -961.362,285.133 -961.362,284.806C-961.362,284.369 -961.674,284.016 -962.083,283.92C-962.143,283.575 -962.201,283.23 -962.26,282.883C-962.174,282.743 -962.111,282.588 -962.111,282.412C-962.111,282.123 -962.252,281.874 -962.46,281.703C-963.603,274.764 -964.579,267.512 -965.332,259.964C-965.973,253.537 -966.411,247.312 -966.681,241.305C-966.995,247.391 -967.453,253.66 -968.079,260.097C-968.808,267.6 -969.718,274.853 -970.77,281.848C-970.894,282.007 -970.98,282.196 -970.98,282.412C-970.98,282.533 -970.953,282.648 -970.91,282.756C-970.979,283.208 -971.049,283.658 -971.119,284.108C-971.32,284.279 -971.454,284.523 -971.454,284.806C-971.454,284.985 -971.39,285.142 -971.301,285.285C-971.362,285.669 -971.425,286.05 -971.487,286.433C-971.744,286.599 -971.924,286.874 -971.924,287.201C-971.924,287.42 -971.836,287.614 -971.708,287.773C-972.035,289.759 -972.37,291.73 -972.718,293.671C-973.447,293.748 -974.022,294.361 -974.022,295.109C-974.022,295.909 -973.368,296.563 -972.568,296.563L-972.851,296.563L-972.851,301.799L-981.513,301.799L-981.513,303.544L-980.464,303.544L-980.464,304.438L-979.965,304.438L-979.965,305.915L-979.565,305.915L-979.565,310.702L-980.464,310.702L-980.464,312.325C-981.187,312.423 -981.951,312.578 -982.762,312.85C-983.166,312.985 -984.555,313.474 -986.058,314.55C-986.523,314.883 -987.592,315.697 -988.604,317.011C-988.837,317.313 -989.67,318.425 -990.353,320.232C-991.394,322.991 -991.421,325.618 -991.251,327.436C-991.335,331.672 -991.418,335.908 -991.501,340.143C-991.616,342.063 -991.731,343.984 -991.846,345.904L-996.032,345.904C-996.363,341.811 -996.695,337.718 -997.026,333.626C-997.669,326.994 -998.313,320.363 -998.957,313.731C-999.173,310.234 -999.487,306.242 -999.952,301.86C-1000.11,300.412 -1000.32,298.565 -1001.41,296.438C-1002.22,294.847 -1003.26,293.619 -1003.78,293.008C-1004.31,292.385 -1005.25,291.297 -1006.77,290.126C-1007.34,289.687 -1009.08,288.39 -1011.75,287.312C-1013.16,286.74 -1014.47,286.382 -1015.58,286.144L-1015.58,284.155L-1016.8,284.155L-1016.8,276.812L-1016.11,276.812L-1016.11,274.549L-1015.19,274.549L-1015.19,273.175L-1013.82,273.175L-1013.82,270.5L-1027.07,270.5L-1027.07,262.47L-1027.73,262.47C-1026.5,262.47 -1025.5,261.467 -1025.5,260.241C-1025.5,259.014 -1026.5,258.011 -1027.73,258.011L-1036.72,258.011C-1033.5,257.988 -1030.28,257.965 -1027.07,257.941C-1027.64,255.076 -1028.19,252.156 -1028.73,249.211C-1028.41,248.949 -1028.2,248.555 -1028.2,248.111C-1028.2,247.484 -1028.61,246.955 -1029.18,246.765C-1029.25,246.388 -1029.32,246.019 -1029.38,245.641C-1028.98,245.388 -1028.71,244.945 -1028.71,244.438C-1028.71,243.762 -1029.19,243.195 -1029.83,243.051C-1029.91,242.543 -1030,242.033 -1030.09,241.522C-1029.95,241.302 -1029.86,241.044 -1029.86,240.766C-1029.86,240.318 -1030.08,239.921 -1030.4,239.66C-1032.15,229.023 -1033.65,217.908 -1034.8,206.338C-1035.79,196.482 -1036.46,186.934 -1036.87,177.722C-1037.35,187.056 -1038.06,196.67 -1039.02,206.544C-1040.13,218.039 -1041.53,229.152 -1043.14,239.871C-1043.34,240.116 -1043.46,240.425 -1043.46,240.766C-1043.46,240.955 -1043.43,241.133 -1043.36,241.299C-1043.46,241.985 -1043.57,242.669 -1043.68,243.351C-1043.99,243.613 -1044.19,244.002 -1044.19,244.438C-1044.19,244.721 -1044.11,244.984 -1043.96,245.207C-1044.05,245.775 -1044.15,246.34 -1044.24,246.905C-1044.64,247.157 -1044.91,247.602 -1044.91,248.111C-1044.91,248.453 -1044.79,248.763 -1044.58,249.009C-1045.09,252.048 -1045.6,255.064 -1046.13,258.035C-1047.25,258.152 -1048.13,259.093 -1048.13,260.241C-1048.13,261.467 -1047.13,262.47 -1045.9,262.47L-1046.33,262.47L-1046.33,270.5L-1059.62,270.5L-1059.62,273.175L-1058.01,273.175L-1058.01,274.549L-1057.25,274.549L-1057.25,276.812L-1056.63,276.812L-1056.63,284.155L-1058.01,284.155L-1058.01,286.644C-1059.12,286.794 -1060.29,287.033 -1061.53,287.449C-1062.15,287.657 -1064.29,288.407 -1066.59,290.056C-1067.3,290.568 -1068.94,291.816 -1070.5,293.831C-1070.85,294.294 -1072.13,295.999 -1073.18,298.772C-1074.77,303.003 -1074.82,307.031 -1074.56,309.82C-1074.68,316.316 -1074.81,322.812 -1074.94,329.308C-1075.27,334.841 -1075.6,340.372 -1075.93,345.904L-1079.1,345.904L-1080.61,330.339C-1080.92,325.287 -1081.38,319.521 -1082.05,313.193C-1082.27,311.102 -1082.58,308.434 -1084.15,305.363C-1085.33,303.065 -1086.83,301.291 -1087.58,300.408C-1088.35,299.509 -1089.71,297.936 -1091.9,296.245C-1092.72,295.612 -1095.23,293.739 -1099.09,292.181C-1101.13,291.355 -1103.01,290.839 -1104.62,290.496L-1104.62,287.623L-1106.39,287.623L-1106.39,277.018L-1105.39,277.018L-1105.39,273.748L-1104.07,273.748L-1104.07,271.765L-1102.07,271.765L-1102.07,267.9L-1121.21,267.9L-1121.21,256.304L-1122.16,256.304C-1120.39,256.304 -1118.94,254.855 -1118.94,253.084C-1118.94,251.312 -1120.39,249.863 -1122.16,249.863L-1135.15,249.863C-1130.5,249.83 -1125.86,249.797 -1121.21,249.762C-1122.04,245.625 -1122.84,241.407 -1123.62,237.153C-1123.15,236.775 -1122.85,236.207 -1122.85,235.564C-1122.85,234.66 -1123.45,233.894 -1124.26,233.622C-1124.36,233.078 -1124.46,232.544 -1124.56,231.998C-1123.98,231.633 -1123.59,230.992 -1123.59,230.26C-1123.59,229.285 -1124.28,228.466 -1125.19,228.258C-1125.32,227.522 -1125.45,226.787 -1125.57,226.049C-1125.37,225.731 -1125.25,225.358 -1125.25,224.957C-1125.25,224.309 -1125.56,223.736 -1126.03,223.358C-1128.56,207.997 -1130.72,191.944 -1132.38,175.232C-1133.81,160.998 -1134.77,147.209 -1135.37,133.904C-1136.07,147.385 -1137.08,161.27 -1138.47,175.53C-1140.08,192.132 -1142.1,208.182 -1144.42,223.663C-1144.71,224.018 -1144.9,224.465 -1144.9,224.957C-1144.9,225.229 -1144.84,225.488 -1144.74,225.726C-1144.89,226.717 -1145.05,227.705 -1145.2,228.691C-1145.65,229.069 -1145.95,229.629 -1145.95,230.26C-1145.95,230.67 -1145.82,231.049 -1145.62,231.37C-1145.75,232.191 -1145.88,233.006 -1146.01,233.823C-1146.59,234.187 -1146.99,234.83 -1146.99,235.564C-1146.99,236.058 -1146.8,236.507 -1146.51,236.862C-1147.24,241.251 -1147.98,245.607 -1148.75,249.897C-1150.36,250.067 -1151.63,251.426 -1151.63,253.084C-1151.63,254.855 -1150.18,256.304 -1148.41,256.304L-1149.04,256.304L-1149.04,267.9L-1168.23,267.9L-1168.23,271.765L-1165.9,271.765L-1165.9,273.748L-1164.8,273.748L-1164.8,277.018L-1163.91,277.018L-1163.91,287.623L-1165.9,287.623L-1165.9,291.217C-1167.5,291.432 -1169.2,291.778 -1170.99,292.38C-1171.89,292.679 -1174.96,293.763 -1178.29,296.146C-1179.33,296.884 -1181.69,298.687 -1183.94,301.597C-1184.45,302.265 -1186.3,304.727 -1187.81,308.733C-1190.11,314.843 -1190.17,320.662 -1189.8,324.689C-1189.94,331.761 -1190.08,338.833 -1190.21,345.904L-1370.72,345.904L-1370.72,379.904L854.277,379.904L854.277,345.904Z" style="fill:rgb(112,137,146);fill-rule:nonzero;"/>
        </g>
        <g transform="matrix(1,0,0,1,400,31)">
            <path d="M1036.41,252.904L828.526,414.507L829.14,415.296L1036.29,254.259L1035.75,260.725L824.019,442.947L824.671,443.705L1035.63,262.147L1034.88,271.109L853.908,456.44L854.624,457.139L1034.75,272.675L1033.84,283.458L879.32,461.698L880.075,462.353L1033.7,285.148L1032.72,296.871L900.997,464.709L901.783,465.327L1032.57,298.685L1031.45,312.016L924.175,458.739L924.982,459.329L1031.29,313.93L1030.12,327.816L949.585,458.772L950.437,459.296L1029.94,330.027L1028.33,349.169L976.486,459.569L977.391,459.994L1028.09,352.033L1027.43,359.922L990.778,478.856L1007.55,478.856L1040.15,364.411L1075.64,478.856L1090.26,478.856L1053.61,359.922L1052.88,351.242L1104.48,461.109L1105.38,460.684L1052.64,348.378L1051.08,329.757L1131.43,460.41L1132.28,459.886L1050.89,327.547L1049.75,313.91L1156.89,460.443L1157.69,459.853L1049.59,311.996L1048.48,298.75L1180.08,466.44L1180.87,465.823L1048.33,296.937L1047.35,285.323L1201.79,463.467L1202.55,462.812L1047.21,283.633L1046.32,272.965L1227.24,458.253L1227.96,457.555L1046.19,271.399L1045.45,262.617L1273.2,461.281L1273.85,460.527L1045.33,261.185L1044.78,254.587L1319.98,456.445L1320.57,455.638L1044.66,253.265L1043.89,243.981L1046.13,237.997L1040.89,228.834L1040.89,227.525L1040.52,228.179L1040.15,227.525L1040.15,228.834L1034.91,237.997L1037.15,243.981L1036.41,252.904Z" style="fill:rgb(112,137,146);fill-rule:nonzero;"/>
        </g>
        <g transform="matrix(1,0,0,1,860,31)">
            <path d="M1036.41,252.904L828.526,414.507L829.14,415.296L1036.29,254.259L1035.75,260.725L824.019,442.947L824.671,443.705L1035.63,262.147L1034.88,271.109L853.908,456.44L854.624,457.139L1034.75,272.675L1033.84,283.458L879.32,461.698L880.075,462.353L1033.7,285.148L1032.72,296.871L900.997,464.709L901.783,465.327L1032.57,298.685L1031.45,312.016L924.175,458.739L924.982,459.329L1031.29,313.93L1030.12,327.816L949.585,458.772L950.437,459.296L1029.94,330.027L1028.33,349.169L976.486,459.569L977.391,459.994L1028.09,352.033L1027.43,359.922L990.778,478.856L1007.55,478.856L1040.15,364.411L1075.64,478.856L1090.26,478.856L1053.61,359.922L1052.88,351.242L1104.48,461.109L1105.38,460.684L1052.64,348.378L1051.08,329.757L1131.43,460.41L1132.28,459.886L1050.89,327.547L1049.75,313.91L1156.89,460.443L1157.69,459.853L1049.59,311.996L1048.48,298.75L1180.08,466.44L1180.87,465.823L1048.33,296.937L1047.35,285.323L1201.79,463.467L1202.55,462.812L1047.21,283.633L1046.32,272.965L1227.24,458.253L1227.96,457.555L1046.19,271.399L1045.45,262.617L1273.2,461.281L1273.85,460.527L1045.33,261.185L1044.78,254.587L1319.98,456.445L1320.57,455.638L1044.66,253.265L1043.89,243.981L1046.13,237.997L1040.89,228.834L1040.89,227.525L1040.52,228.179L1040.15,227.525L1040.15,228.834L1034.91,237.997L1037.15,243.981L1036.41,252.904Z" style="fill:rgb(112,137,146);fill-rule:nonzero;"/>
        </g>
    </g>
</svg>
